<svg width="25" height="25" viewBox="0 0 25 25" fill="none" xmlns="http://www.w3.org/2000/svg">
<g clip-path="url(#clip0_59_284)">
<path d="M25 12.5C25 5.59644 19.4036 0 12.5 0C5.59644 0 0 5.59644 0 12.5C0 19.4036 5.59644 25 12.5 25C19.4036 25 25 19.4036 25 12.5Z" fill="#FAFAFA"/>
<path d="M13.4443 24.9998V16.3119H16.3592L16.7965 12.9251H13.4443V10.7631C13.4443 9.78281 13.7153 9.11478 15.1226 9.11478L16.9145 9.11404V6.08474C16.6046 6.04448 15.5409 5.95215 14.3028 5.95215C11.7175 5.95215 9.94751 7.53021 9.94751 10.4276V12.9251H7.02368V16.3119H9.94751V24.9998H13.4443Z" fill="black"/>
</g>
<defs>
<clipPath id="clip0_59_284">
<rect width="25" height="25" fill="white"/>
</clipPath>
</defs>
</svg>
