<svg width="25" height="25" viewBox="0 0 25 25" fill="none" xmlns="http://www.w3.org/2000/svg">
<g clip-path="url(#clip0_59_297)">
<path d="M12.5042 6.08105C8.9594 6.08105 6.0896 8.95397 6.0896 12.4957C6.0896 16.0404 8.96252 18.9102 12.5042 18.9102C16.049 18.9102 18.9187 16.0374 18.9187 12.4957C18.9187 8.95084 16.0459 6.08105 12.5042 6.08105ZM12.5042 16.6591C10.2031 16.6591 8.34065 14.7957 8.34065 12.4957C8.34065 10.1956 10.2042 8.33209 12.5042 8.33209C14.8042 8.33209 16.6678 10.1956 16.6678 12.4957C16.6687 14.7957 14.8053 16.6591 12.5042 16.6591Z" fill="white"/>
<path d="M17.6544 0.0795043C15.3544 -0.0277873 9.65752 -0.022579 7.35544 0.0795043C5.33252 0.174296 3.54815 0.662838 2.10961 2.10138C-0.294555 4.50555 0.0127367 7.74513 0.0127367 12.4962C0.0127367 17.3587 -0.258096 20.5233 2.10961 22.891C4.52315 25.3035 7.80961 24.9879 12.5044 24.9879C17.3211 24.9879 18.9836 24.991 20.6867 24.3316C23.0023 23.4327 24.7502 21.3629 24.9211 17.6452C25.0294 15.3441 25.0231 9.64826 24.9211 7.34617C24.7149 2.95763 22.3596 0.296171 17.6544 0.0795043ZM21.295 21.3004C19.7189 22.8763 17.5325 22.7358 12.4742 22.7358C7.26586 22.7358 5.17732 22.8129 3.65336 21.2847C1.89815 19.5379 2.21586 16.7327 2.21586 12.4796C2.21586 6.7243 1.62524 2.5795 7.40127 2.28367C8.72836 2.2368 9.11899 2.22117 12.4596 2.22117L12.5064 2.25242C18.0575 2.25242 22.4127 1.67117 22.6742 7.44617C22.7336 8.76388 22.7471 9.15972 22.7471 12.4952C22.7461 17.643 22.844 19.7441 21.295 21.3004Z" fill="white"/>
<path d="M19.173 7.32702C20.0009 7.32702 20.6719 6.65591 20.6719 5.82807C20.6719 5.00021 20.0009 4.3291 19.173 4.3291C18.3451 4.3291 17.6741 5.00021 17.6741 5.82807C17.6741 6.65591 18.3451 7.32702 19.173 7.32702Z" fill="white"/>
</g>
<defs>
<clipPath id="clip0_59_297">
<rect width="25" height="25" fill="white"/>
</clipPath>
</defs>
</svg>
