<svg width="25" height="25" viewBox="0 0 25 25" fill="none" xmlns="http://www.w3.org/2000/svg">
<g clip-path="url(#clip0_59_317)">
<path d="M21.4286 0H3.57143C1.59898 0 0 1.59898 0 3.57143V21.4286C0 23.401 1.59898 25 3.57143 25H21.4286C23.401 25 25 23.401 25 21.4286V3.57143C25 1.59898 23.401 0 21.4286 0Z" fill="white"/>
<path d="M20.2345 19.0472V19.0467H20.2382V13.9433C20.2382 11.4466 19.669 9.52344 16.578 9.52344C15.0922 9.52344 14.0951 10.2934 13.6879 11.0234H13.645V9.75652H10.7144V19.0467H13.7659V14.4465C13.7659 13.2353 14.0091 12.0642 15.5976 12.0642C17.1626 12.0642 17.1859 13.4464 17.1859 14.5243V19.0472H20.2345Z" fill="black"/>
<path d="M5.95239 9.52344H9.52382V19.0472H5.95239V9.52344Z" fill="black"/>
<path d="M7.73811 4.76172C6.75231 4.76172 5.95239 5.55791 5.95239 6.53911C5.95239 7.52031 6.75231 8.33315 7.73811 8.33315C8.7239 8.33315 9.52382 7.52031 9.52382 6.53911C9.5232 5.55791 8.72329 4.76172 7.73811 4.76172Z" fill="black"/>
</g>
<defs>
<clipPath id="clip0_59_317">
<rect width="25" height="25" fill="white"/>
</clipPath>
</defs>
</svg>
