<svg width="194" height="59" viewBox="0 0 194 59" fill="none" xmlns="http://www.w3.org/2000/svg">
<path d="M149.213 1.15657C144.331 5.78276 143.406 6.62823 143.23 6.62823C143.135 6.62823 142.193 5.703 141.141 4.55442C140.104 3.42181 138.907 2.14562 138.508 1.73085L137.775 0.965141H130.341C125.523 0.965141 122.891 1.013 122.891 1.12466C122.891 1.20443 124.853 3.27823 127.262 5.703C133.85 12.403 135.653 14.2694 135.653 14.4289C135.653 14.5087 134.377 15.8966 132.813 17.5397C128.49 22.0542 128.746 21.7511 129.065 21.8946C129.224 21.9425 129.671 22.0063 130.054 22.0063C130.437 22.0223 131.202 22.0861 131.729 22.1658C132.813 22.3413 133.85 22.453 142.321 23.3782C144.475 23.6175 145.304 23.7132 149.213 24.1758C150.313 24.3035 151.829 24.447 152.61 24.5108C154.206 24.6385 154.11 24.7661 153.823 22.8996C153.743 22.2775 153.599 21.2406 153.52 20.5866C153.44 19.9325 153.248 18.5606 153.121 17.5556C152.882 15.8168 152.547 13.2485 152.243 10.7758C152.164 10.1537 151.988 8.82966 151.845 7.82466C151.717 6.81966 151.494 5.19252 151.366 4.23538C150.888 0.502522 150.824 0.119665 150.696 0.00799942C150.632 -0.0717621 149.962 0.454666 149.213 1.15657Z" fill="#E31E25"/>
<path d="M165.26 0.358957C165.213 0.566339 165.165 1.06086 165.165 1.45967C165.165 1.85848 165.117 2.24134 165.053 2.30515C164.973 2.36896 164.846 3.26229 164.734 4.28324C164.622 5.30419 164.463 6.69205 164.367 7.3461C164.271 8.00014 164.16 8.82967 164.128 9.18062C164.08 9.53157 163.984 10.2813 163.904 10.8556C163.825 11.4299 163.681 12.6423 163.569 13.5675C163.474 14.4928 163.33 15.4978 163.25 15.8009C163.171 16.1039 163.027 17.1089 162.931 18.0342C162.836 18.9594 162.692 20.1718 162.612 20.7461C162.389 22.3573 162.15 24.4949 162.198 24.5428C162.229 24.5587 162.915 24.4949 163.745 24.3992C165.532 24.1918 166.68 24.0482 169.871 23.6973C173.141 23.3463 176.331 22.9794 177.767 22.8199C178.421 22.7401 180.048 22.5647 181.356 22.4211C182.68 22.2775 184.324 22.102 185.025 22.0223C185.727 21.9425 186.477 21.8787 186.669 21.8787C186.876 21.8628 187.019 21.783 186.988 21.7032C186.956 21.6075 185.919 20.4909 184.674 19.1828C181.069 15.4499 180.16 14.4768 180.16 14.3651C180.16 14.3013 180.431 13.9982 180.766 13.6951C181.085 13.392 183.877 10.5685 186.94 7.42586C190.019 4.28324 192.667 1.58729 192.826 1.42777C193.129 1.12467 192.954 1.12467 185.727 1.12467C178.756 1.12467 178.294 1.14062 177.99 1.41181C177.48 1.90634 174.624 5.01705 174.226 5.51157C173.811 6.038 172.949 6.85157 172.806 6.86753C172.742 6.86753 172.359 6.53253 171.929 6.10181C171.498 5.68705 170.142 4.41086 168.914 3.27824C167.685 2.12967 166.425 0.933243 166.122 0.598244C165.803 0.279196 165.5 0.00800514 165.452 0.00800514C165.404 0.00800514 165.324 0.16753 165.26 0.358957Z" fill="#008DD4"/>
<path d="M150.88 57.3273C150.928 57.1199 150.975 56.6254 150.975 56.2266C150.975 55.8278 151.023 55.4449 151.087 55.3811C151.167 55.3173 151.294 54.424 151.406 53.403C151.518 52.3821 151.677 50.9942 151.773 50.3402C151.869 49.6861 151.98 48.8566 152.012 48.5056C152.06 48.1547 152.156 47.4049 152.236 46.8306C152.315 46.2564 152.459 45.044 152.571 44.1187C152.666 43.1935 152.81 42.1885 152.89 41.8854C152.969 41.5823 153.113 40.5773 153.209 39.6521C153.304 38.7268 153.448 37.5145 153.528 36.9402C153.751 35.329 153.99 33.1914 153.943 33.1435C153.911 33.1276 153.225 33.1914 152.395 33.2871C150.609 33.4945 149.46 33.638 146.269 33.989C142.999 34.3399 139.809 34.7068 138.373 34.8664C137.719 34.9461 136.092 35.1216 134.784 35.2652C133.46 35.4087 131.817 35.5842 131.115 35.664C130.413 35.7437 129.663 35.8076 129.472 35.8076C129.264 35.8235 129.121 35.9033 129.153 35.983C129.184 36.0787 130.221 37.1954 131.466 38.5035C135.071 42.2364 135.98 43.2095 135.98 43.3211C135.98 43.3849 135.709 43.688 135.374 43.9911C135.055 44.2942 132.263 47.1178 129.2 50.2604C126.122 53.403 123.474 56.099 123.314 56.2585C123.011 56.5616 123.186 56.5616 130.413 56.5616C137.384 56.5616 137.847 56.5456 138.15 56.2744C138.66 55.7799 141.516 52.6692 141.914 52.1747C142.329 51.6483 143.191 50.8347 143.334 50.8187C143.398 50.8187 143.781 51.1537 144.212 51.5844C144.642 51.9992 145.998 53.2754 147.227 54.408C148.455 55.5566 149.715 56.753 150.018 57.088C150.337 57.4071 150.64 57.6783 150.688 57.6783C150.736 57.6783 150.816 57.5187 150.88 57.3273Z" fill="#AFCB1F"/>
<path d="M43.1292 29.4401V58.0746H50.866H58.6029V29.4401V0.805618H50.866H43.1292V29.4401Z" fill="#FAFAFA"/>
<path d="M25.3424 1.14062C20.7321 1.53944 15.8826 3.35801 11.8626 6.19753C9.96428 7.52158 6.47071 10.9832 5.30619 12.6901C2.69 16.5028 1.11072 20.2835 0.281192 24.8139C-0.101665 26.8239 -0.0857122 31.8968 0.281192 33.9866C0.664049 36.0923 1.41381 38.7563 1.95619 39.9687C3.87048 44.228 5.35405 46.4773 7.93833 49.1094C9.50166 50.7206 12.1338 52.8582 13.7131 53.8154C16.5048 55.5063 19.1209 56.4634 23.5078 57.4365C24.6245 57.6918 31.2926 57.8354 34.9138 57.6758L37.7054 57.5642V51.2949V45.0256L33.5259 44.9458C30.479 44.898 29.0752 44.8023 28.3733 44.6268C27.8469 44.4832 27.0971 44.2918 26.7143 44.1961C25.7571 43.9568 23.6355 42.872 22.3912 41.9946C19.6952 40.0644 17.5576 37.0813 16.5526 33.827C16.425 33.4282 16.2176 32.3594 16.074 31.4342C15.3562 26.7761 17.1109 21.7192 20.5886 18.3213C22.3752 16.5985 23.9226 15.6254 26.459 14.6842C28.3255 13.9823 29.3305 13.8547 33.5578 13.743L37.6257 13.6473L37.6735 7.40991L37.7054 1.17253L34.0045 1.07682C29.6176 0.9492 27.3045 0.965149 25.3424 1.14062Z" fill="#FAFAFA"/>
<path d="M90.1091 1.07683C85.8658 1.42778 81.5268 2.79969 78.0172 4.88945C74.1568 7.20254 70.1368 11.1747 68.3341 14.4449C68.047 14.9713 67.6322 15.6732 67.4249 15.9923C67.2334 16.3273 67.058 16.6304 67.058 16.6623C67.058 16.7102 66.8506 17.1887 66.5953 17.7471C65.5584 20.0282 64.6811 23.0911 64.3301 25.6913C64.0589 27.6216 64.0589 31.2587 64.3301 33.1092C64.6172 35.1989 65.6541 39.1711 65.9891 39.5061C66.053 39.5699 66.1008 39.7294 66.1008 39.857C66.1008 40.192 67.7439 43.4144 68.5894 44.7225C71.4289 49.1094 75.6244 52.8582 80.1708 55.0277C82.6115 56.1763 84.3822 56.7666 87.3972 57.3727C89.4232 57.8035 96.2189 57.8035 99.1222 57.3887C101.324 57.0696 103.445 56.7187 104.546 56.4954C106.652 56.0646 107.864 55.7935 108.295 55.6818C108.566 55.602 108.965 55.5063 109.22 55.4585L109.651 55.3627V46.6687C109.651 41.5799 109.587 37.9747 109.507 37.9747C109.427 37.9747 108.997 38.4532 108.566 39.0435C106.923 41.2609 104.722 43.0794 102.6 43.9728C100.749 44.7544 99.4094 44.9937 97.0484 44.9937C91.8958 44.9937 88.0672 43.6218 85.0203 40.7025C82.5796 38.3575 81.1279 35.7892 80.3782 32.503C80.0591 31.0513 80.0591 27.7971 80.3941 26.2816C81.5906 20.8578 85.1958 16.7102 90.4441 14.748C92.8051 13.8706 93.0444 13.8547 101.595 13.743L109.571 13.6473L109.619 7.40992L109.651 1.17255L105.232 1.07683C100.877 0.965164 91.3534 0.965164 90.1091 1.07683Z" fill="#FAFAFA"/>
<path d="M92.6615 23.1868C92.6136 23.2825 92.5977 26.1858 92.6136 29.5996L92.6615 35.8211L101.164 35.8689L109.651 35.9008V29.4401V22.9794H101.196C94.5598 22.9794 92.7094 23.0273 92.6615 23.1868Z" fill="#FAFAFA"/>
<path d="M162.038 34.2258C161.974 34.3535 162.022 35.0235 162.118 35.7094C162.214 36.3794 162.405 37.7992 162.533 38.852C162.66 39.9049 162.852 41.2289 162.931 41.8032C163.027 42.3775 163.171 43.4463 163.25 44.1961C163.33 44.9458 163.474 46.0466 163.57 46.6687C163.713 47.7535 164.479 53.608 164.925 57.1813C165.053 58.1384 165.181 58.952 165.229 58.9839C165.276 59.0318 165.436 58.968 165.611 58.8563C166.01 58.5692 170.924 53.9111 171.849 52.922C172.248 52.5073 172.646 52.1723 172.758 52.1723C172.854 52.1723 173.205 52.4754 173.556 52.8582C173.891 53.2251 174.96 54.3896 175.917 55.4425C176.874 56.4954 177.799 57.4844 177.975 57.628C178.262 57.8992 178.868 57.9151 185.759 57.9151C189.859 57.9151 193.257 57.8513 193.305 57.7875C193.337 57.7237 192.395 56.6549 191.215 55.4425C185.52 49.588 184.1 48.1204 182.329 46.3177L180.415 44.3716L181.197 43.5261C181.612 43.0635 182.76 41.8511 183.733 40.8461C184.706 39.8411 185.919 38.5649 186.445 38.0225C186.972 37.4801 187.37 36.9856 187.323 36.9537C187.227 36.858 184.595 36.5389 175.295 35.502C174.066 35.3744 172.423 35.183 171.625 35.1032C170.844 35.0075 169.839 34.8958 169.392 34.848C168.961 34.8161 168.02 34.7044 167.318 34.6247C166.616 34.5449 165.292 34.4013 164.367 34.3056C163.442 34.1939 162.565 34.0823 162.405 34.0504C162.245 34.0025 162.086 34.0663 162.038 34.2258Z" fill="#FAFAFA"/>
</svg>
