<svg width="235" height="342" viewBox="0 0 235 342" fill="none" xmlns="http://www.w3.org/2000/svg">
<g clip-path="url(#clip0_36_742)">
<path d="M232.521 2.47826C231.836 2.47826 231.281 1.92324 231.281 1.23879C231.281 0.554339 231.836 2.29349e-08 232.521 1.47675e-08C233.206 6.60822e-09 233.76 0.554339 233.76 1.23879C233.76 1.92324 233.206 2.47826 232.521 2.47826Z" fill="#1290C9"/>
<path d="M232.521 19.8262C231.836 19.8262 231.281 19.2711 231.281 18.5867C231.281 17.9022 231.836 17.3479 232.521 17.3479C233.206 17.3479 233.76 17.9022 233.76 18.5867C233.76 19.2711 233.206 19.8262 232.521 19.8262Z" fill="#1290C9"/>
<path d="M232.521 37.1738C231.836 37.1738 231.281 36.6188 231.281 35.9343C231.281 35.2499 231.836 34.6956 232.521 34.6956C233.206 34.6956 233.76 35.2499 233.76 35.9343C233.76 36.6188 233.206 37.1738 232.521 37.1738Z" fill="#1290C9"/>
<path d="M232.521 53.2827C231.836 53.2827 231.281 52.7277 231.281 52.0432C231.281 51.3588 231.836 50.8044 232.521 50.8044C233.206 50.8044 233.76 51.3588 233.76 52.0432C233.76 52.7277 233.206 53.2827 232.521 53.2827Z" fill="#1290C9"/>
<path d="M232.521 70.6304C231.836 70.6304 231.281 70.0753 231.281 69.3909C231.281 68.7064 231.836 68.1521 232.521 68.1521C233.206 68.1521 233.76 68.7064 233.76 69.3909C233.76 70.0753 233.206 70.6304 232.521 70.6304Z" fill="#1290C9"/>
<path d="M232.521 70.6304C231.836 70.6304 231.281 70.0753 231.281 69.3909C231.281 68.7064 231.836 68.1521 232.521 68.1521C233.206 68.1521 233.76 68.7064 233.76 69.3909C233.76 70.0753 233.206 70.6304 232.521 70.6304Z" fill="#1290C9"/>
<path d="M232.521 87.9783C231.836 87.9783 231.281 87.4232 231.281 86.7388C231.281 86.0543 231.836 85.5 232.521 85.5C233.206 85.5 233.76 86.0543 233.76 86.7388C233.76 87.4232 233.206 87.9783 232.521 87.9783Z" fill="#1290C9"/>
<path d="M232.521 104.087C231.836 104.087 231.281 103.532 231.281 102.847C231.281 102.163 231.836 101.609 232.521 101.609C233.206 101.609 233.76 102.163 233.76 102.847C233.76 103.532 233.206 104.087 232.521 104.087Z" fill="#1290C9"/>
<path d="M232.521 121.435C231.836 121.435 231.281 120.88 231.281 120.195C231.281 119.511 231.836 118.957 232.521 118.957C233.206 118.957 233.76 119.511 233.76 120.195C233.76 120.88 233.206 121.435 232.521 121.435Z" fill="#1290C9"/>
<path d="M232.521 138.783C231.836 138.783 231.281 138.228 231.281 137.543C231.281 136.859 231.836 136.304 232.521 136.304C233.206 136.304 233.76 136.859 233.76 137.543C233.76 138.228 233.206 138.783 232.521 138.783Z" fill="#1290C9"/>
<path d="M232.521 138.783C231.836 138.783 231.281 138.228 231.281 137.543C231.281 136.859 231.836 136.304 232.521 136.304C233.206 136.304 233.76 136.859 233.76 137.543C233.76 138.228 233.206 138.783 232.521 138.783Z" fill="#1290C9"/>
<path d="M232.521 154.891C231.836 154.891 231.281 154.336 231.281 153.652C231.281 152.967 231.836 152.413 232.521 152.413C233.206 152.413 233.76 152.967 233.76 153.652C233.76 154.336 233.206 154.891 232.521 154.891Z" fill="#1290C9"/>
<path d="M232.521 172.239C231.836 172.239 231.281 171.684 231.281 171C231.281 170.315 231.836 169.761 232.521 169.761C233.206 169.761 233.76 170.315 233.76 171C233.76 171.684 233.206 172.239 232.521 172.239Z" fill="#1290C9"/>
<path d="M232.521 189.587C231.836 189.587 231.281 189.032 231.281 188.347C231.281 187.663 231.836 187.109 232.521 187.109C233.206 187.109 233.76 187.663 233.76 188.347C233.76 189.032 233.206 189.587 232.521 189.587Z" fill="#1290C9"/>
<path d="M232.521 205.696C231.836 205.696 231.281 205.141 231.281 204.456C231.281 203.772 231.836 203.217 232.521 203.217C233.206 203.217 233.76 203.772 233.76 204.456C233.76 205.141 233.206 205.696 232.521 205.696Z" fill="#1290C9"/>
<path d="M232.521 205.696C231.836 205.696 231.281 205.141 231.281 204.456C231.281 203.772 231.836 203.217 232.521 203.217C233.206 203.217 233.76 203.772 233.76 204.456C233.76 205.141 233.206 205.696 232.521 205.696Z" fill="#1290C9"/>
<path d="M232.521 223.043C231.836 223.043 231.281 222.488 231.281 221.804C231.281 221.12 231.836 220.565 232.521 220.565C233.206 220.565 233.76 221.12 233.76 221.804C233.76 222.488 233.206 223.043 232.521 223.043Z" fill="#1290C9"/>
<path d="M232.521 240.391C231.836 240.391 231.281 239.836 231.281 239.152C231.281 238.467 231.836 237.913 232.521 237.913C233.206 237.913 233.76 238.467 233.76 239.152C233.76 239.836 233.206 240.391 232.521 240.391Z" fill="#1290C9"/>
<path d="M232.521 256.5C231.836 256.5 231.281 255.945 231.281 255.261C231.281 254.576 231.836 254.022 232.521 254.022C233.206 254.022 233.76 254.576 233.76 255.261C233.76 255.945 233.206 256.5 232.521 256.5Z" fill="#1290C9"/>
<path d="M232.521 273.848C231.836 273.848 231.281 273.293 231.281 272.608C231.281 271.924 231.836 271.37 232.521 271.37C233.206 271.37 233.76 271.924 233.76 272.608C233.76 273.293 233.206 273.848 232.521 273.848Z" fill="#1290C9"/>
<path d="M232.521 256.5C231.836 256.5 231.281 255.945 231.281 255.261C231.281 254.576 231.836 254.022 232.521 254.022C233.206 254.022 233.76 254.576 233.76 255.261C233.76 255.945 233.206 256.5 232.521 256.5Z" fill="#1290C9"/>
<path d="M232.521 273.848C231.836 273.848 231.281 273.293 231.281 272.608C231.281 271.924 231.836 271.37 232.521 271.37C233.206 271.37 233.76 271.924 233.76 272.608C233.76 273.293 233.206 273.848 232.521 273.848Z" fill="#1290C9"/>
<path d="M232.521 273.848C231.836 273.848 231.281 273.293 231.281 272.608C231.281 271.924 231.836 271.37 232.521 271.37C233.206 271.37 233.76 271.924 233.76 272.608C233.76 273.293 233.206 273.848 232.521 273.848Z" fill="#1290C9"/>
<path d="M232.521 291.196C231.836 291.196 231.281 290.641 231.281 289.956C231.281 289.272 231.836 288.717 232.521 288.717C233.206 288.717 233.76 289.272 233.76 289.956C233.76 290.641 233.206 291.196 232.521 291.196Z" fill="#1290C9"/>
<path d="M232.521 307.304C231.836 307.304 231.281 306.749 231.281 306.065C231.281 305.381 231.836 304.826 232.521 304.826C233.206 304.826 233.76 305.381 233.76 306.065C233.76 306.749 233.206 307.304 232.521 307.304Z" fill="#1290C9"/>
<path d="M232.521 324.652C231.836 324.652 231.281 324.097 231.281 323.413C231.281 322.728 231.836 322.174 232.521 322.174C233.206 322.174 233.76 322.728 233.76 323.413C233.76 324.097 233.206 324.652 232.521 324.652Z" fill="#1290C9"/>
<path d="M232.982 341.682C232.042 341.682 231.281 340.92 231.281 339.982C231.281 339.043 232.042 338.283 232.982 338.283C233.921 338.283 234.681 339.043 234.681 339.982C234.681 340.92 233.921 341.682 232.982 341.682Z" fill="#1290C9"/>
<path d="M215.168 2.47826C214.482 2.47826 213.928 1.92324 213.928 1.23879C213.928 0.554339 214.482 2.29349e-08 215.168 1.47675e-08C215.852 6.60822e-09 216.407 0.554339 216.407 1.23879C216.407 1.92324 215.852 2.47826 215.168 2.47826Z" fill="#1290C9"/>
<path d="M215.168 19.8262C214.482 19.8262 213.928 19.2711 213.928 18.5867C213.928 17.9022 214.482 17.3479 215.168 17.3479C215.852 17.3479 216.407 17.9022 216.407 18.5867C216.407 19.2711 215.852 19.8262 215.168 19.8262Z" fill="#1290C9"/>
<path d="M215.168 37.1738C214.482 37.1738 213.928 36.6188 213.928 35.9343C213.928 35.2499 214.482 34.6956 215.168 34.6956C215.852 34.6956 216.407 35.2499 216.407 35.9343C216.407 36.6188 215.852 37.1738 215.168 37.1738Z" fill="#1290C9"/>
<path d="M215.168 53.2827C214.482 53.2827 213.928 52.7277 213.928 52.0432C213.928 51.3588 214.482 50.8044 215.168 50.8044C215.852 50.8044 216.407 51.3588 216.407 52.0432C216.407 52.7277 215.852 53.2827 215.168 53.2827Z" fill="#1290C9"/>
<path d="M215.168 70.6304C214.482 70.6304 213.928 70.0753 213.928 69.3909C213.928 68.7064 214.482 68.1521 215.168 68.1521C215.852 68.1521 216.407 68.7064 216.407 69.3909C216.407 70.0753 215.852 70.6304 215.168 70.6304Z" fill="#1290C9"/>
<path d="M215.168 70.6304C214.482 70.6304 213.928 70.0753 213.928 69.3909C213.928 68.7064 214.482 68.1521 215.168 68.1521C215.852 68.1521 216.407 68.7064 216.407 69.3909C216.407 70.0753 215.852 70.6304 215.168 70.6304Z" fill="#1290C9"/>
<path d="M215.168 87.9783C214.482 87.9783 213.928 87.4232 213.928 86.7388C213.928 86.0543 214.482 85.5 215.168 85.5C215.852 85.5 216.407 86.0543 216.407 86.7388C216.407 87.4232 215.852 87.9783 215.168 87.9783Z" fill="#1290C9"/>
<path d="M215.168 104.087C214.482 104.087 213.928 103.532 213.928 102.847C213.928 102.163 214.482 101.609 215.168 101.609C215.852 101.609 216.407 102.163 216.407 102.847C216.407 103.532 215.852 104.087 215.168 104.087Z" fill="#1290C9"/>
<path d="M215.168 121.435C214.482 121.435 213.928 120.88 213.928 120.195C213.928 119.511 214.482 118.957 215.168 118.957C215.852 118.957 216.407 119.511 216.407 120.195C216.407 120.88 215.852 121.435 215.168 121.435Z" fill="#1290C9"/>
<path d="M215.168 138.783C214.482 138.783 213.928 138.228 213.928 137.543C213.928 136.859 214.482 136.304 215.168 136.304C215.852 136.304 216.407 136.859 216.407 137.543C216.407 138.228 215.852 138.783 215.168 138.783Z" fill="#1290C9"/>
<path d="M215.168 138.783C214.482 138.783 213.928 138.228 213.928 137.543C213.928 136.859 214.482 136.304 215.168 136.304C215.852 136.304 216.407 136.859 216.407 137.543C216.407 138.228 215.852 138.783 215.168 138.783Z" fill="#1290C9"/>
<path d="M215.168 154.891C214.482 154.891 213.928 154.336 213.928 153.652C213.928 152.967 214.482 152.413 215.168 152.413C215.852 152.413 216.407 152.967 216.407 153.652C216.407 154.336 215.852 154.891 215.168 154.891Z" fill="#1290C9"/>
<path d="M215.168 172.239C214.482 172.239 213.928 171.684 213.928 171C213.928 170.315 214.482 169.761 215.168 169.761C215.852 169.761 216.407 170.315 216.407 171C216.407 171.684 215.852 172.239 215.168 172.239Z" fill="#1290C9"/>
<path d="M215.168 189.587C214.482 189.587 213.928 189.032 213.928 188.347C213.928 187.663 214.482 187.109 215.168 187.109C215.852 187.109 216.407 187.663 216.407 188.347C216.407 189.032 215.852 189.587 215.168 189.587Z" fill="#1290C9"/>
<path d="M215.168 205.696C214.482 205.696 213.928 205.141 213.928 204.456C213.928 203.772 214.482 203.217 215.168 203.217C215.852 203.217 216.407 203.772 216.407 204.456C216.407 205.141 215.852 205.696 215.168 205.696Z" fill="#1290C9"/>
<path d="M215.168 205.696C214.482 205.696 213.928 205.141 213.928 204.456C213.928 203.772 214.482 203.217 215.168 203.217C215.852 203.217 216.407 203.772 216.407 204.456C216.407 205.141 215.852 205.696 215.168 205.696Z" fill="#1290C9"/>
<path d="M215.168 223.043C214.482 223.043 213.928 222.488 213.928 221.804C213.928 221.12 214.482 220.565 215.168 220.565C215.852 220.565 216.407 221.12 216.407 221.804C216.407 222.488 215.852 223.043 215.168 223.043Z" fill="#1290C9"/>
<path d="M215.168 240.391C214.482 240.391 213.928 239.836 213.928 239.152C213.928 238.467 214.482 237.913 215.168 237.913C215.852 237.913 216.407 238.467 216.407 239.152C216.407 239.836 215.852 240.391 215.168 240.391Z" fill="#1290C9"/>
<path d="M215.168 256.5C214.482 256.5 213.928 255.945 213.928 255.261C213.928 254.576 214.482 254.022 215.168 254.022C215.852 254.022 216.407 254.576 216.407 255.261C216.407 255.945 215.852 256.5 215.168 256.5Z" fill="#1290C9"/>
<path d="M215.168 273.848C214.482 273.848 213.928 273.293 213.928 272.608C213.928 271.924 214.482 271.37 215.168 271.37C215.852 271.37 216.407 271.924 216.407 272.608C216.407 273.293 215.852 273.848 215.168 273.848Z" fill="#1290C9"/>
<path d="M215.168 256.5C214.482 256.5 213.928 255.945 213.928 255.261C213.928 254.576 214.482 254.022 215.168 254.022C215.852 254.022 216.407 254.576 216.407 255.261C216.407 255.945 215.852 256.5 215.168 256.5Z" fill="#1290C9"/>
<path d="M215.168 273.848C214.482 273.848 213.928 273.293 213.928 272.608C213.928 271.924 214.482 271.37 215.168 271.37C215.852 271.37 216.407 271.924 216.407 272.608C216.407 273.293 215.852 273.848 215.168 273.848Z" fill="#1290C9"/>
<path d="M215.168 273.848C214.482 273.848 213.928 273.293 213.928 272.608C213.928 271.924 214.482 271.37 215.168 271.37C215.852 271.37 216.407 271.924 216.407 272.608C216.407 273.293 215.852 273.848 215.168 273.848Z" fill="#1290C9"/>
<path d="M215.168 291.196C214.482 291.196 213.928 290.641 213.928 289.956C213.928 289.272 214.482 288.717 215.168 288.717C215.852 288.717 216.407 289.272 216.407 289.956C216.407 290.641 215.852 291.196 215.168 291.196Z" fill="#1290C9"/>
<path d="M215.168 307.304C214.482 307.304 213.928 306.749 213.928 306.065C213.928 305.381 214.482 304.826 215.168 304.826C215.852 304.826 216.407 305.381 216.407 306.065C216.407 306.749 215.852 307.304 215.168 307.304Z" fill="#1290C9"/>
<path d="M215.168 324.652C214.482 324.652 213.928 324.097 213.928 323.413C213.928 322.728 214.482 322.174 215.168 322.174C215.852 322.174 216.407 322.728 216.407 323.413C216.407 324.097 215.852 324.652 215.168 324.652Z" fill="#1290C9"/>
<path d="M215.628 341.682C214.688 341.682 213.928 340.92 213.928 339.982C213.928 339.043 214.688 338.283 215.628 338.283C216.567 338.283 217.328 339.043 217.328 339.982C217.328 340.92 216.567 341.682 215.628 341.682Z" fill="#1290C9"/>
<path d="M199.054 2.47826C198.368 2.47826 197.814 1.92324 197.814 1.23879C197.814 0.554339 198.368 2.29349e-08 199.054 1.47675e-08C199.738 6.60822e-09 200.293 0.554339 200.293 1.23879C200.293 1.92324 199.738 2.47826 199.054 2.47826Z" fill="#1290C9"/>
<path d="M199.054 19.8262C198.368 19.8262 197.814 19.2711 197.814 18.5867C197.814 17.9022 198.368 17.3479 199.054 17.3479C199.738 17.3479 200.293 17.9022 200.293 18.5867C200.293 19.2711 199.738 19.8262 199.054 19.8262Z" fill="#1290C9"/>
<path d="M199.054 37.1738C198.368 37.1738 197.814 36.6188 197.814 35.9343C197.814 35.2499 198.368 34.6956 199.054 34.6956C199.738 34.6956 200.293 35.2499 200.293 35.9343C200.293 36.6188 199.738 37.1738 199.054 37.1738Z" fill="#1290C9"/>
<path d="M199.054 53.2827C198.368 53.2827 197.814 52.7277 197.814 52.0432C197.814 51.3588 198.368 50.8044 199.054 50.8044C199.738 50.8044 200.293 51.3588 200.293 52.0432C200.293 52.7277 199.738 53.2827 199.054 53.2827Z" fill="#1290C9"/>
<path d="M199.054 70.6304C198.368 70.6304 197.814 70.0753 197.814 69.3909C197.814 68.7064 198.368 68.1521 199.054 68.1521C199.738 68.1521 200.293 68.7064 200.293 69.3909C200.293 70.0753 199.738 70.6304 199.054 70.6304Z" fill="#1290C9"/>
<path d="M199.054 70.6304C198.368 70.6304 197.814 70.0753 197.814 69.3909C197.814 68.7064 198.368 68.1521 199.054 68.1521C199.738 68.1521 200.293 68.7064 200.293 69.3909C200.293 70.0753 199.738 70.6304 199.054 70.6304Z" fill="#1290C9"/>
<path d="M199.054 87.9783C198.368 87.9783 197.814 87.4232 197.814 86.7388C197.814 86.0543 198.368 85.5 199.054 85.5C199.738 85.5 200.293 86.0543 200.293 86.7388C200.293 87.4232 199.738 87.9783 199.054 87.9783Z" fill="#1290C9"/>
<path d="M199.054 104.087C198.368 104.087 197.814 103.532 197.814 102.847C197.814 102.163 198.368 101.609 199.054 101.609C199.738 101.609 200.293 102.163 200.293 102.847C200.293 103.532 199.738 104.087 199.054 104.087Z" fill="#1290C9"/>
<path d="M199.054 121.435C198.368 121.435 197.814 120.88 197.814 120.195C197.814 119.511 198.368 118.957 199.054 118.957C199.738 118.957 200.293 119.511 200.293 120.195C200.293 120.88 199.738 121.435 199.054 121.435Z" fill="#1290C9"/>
<path d="M199.054 138.783C198.368 138.783 197.814 138.228 197.814 137.543C197.814 136.859 198.368 136.304 199.054 136.304C199.738 136.304 200.293 136.859 200.293 137.543C200.293 138.228 199.738 138.783 199.054 138.783Z" fill="#1290C9"/>
<path d="M199.054 138.783C198.368 138.783 197.814 138.228 197.814 137.543C197.814 136.859 198.368 136.304 199.054 136.304C199.738 136.304 200.293 136.859 200.293 137.543C200.293 138.228 199.738 138.783 199.054 138.783Z" fill="#1290C9"/>
<path d="M199.054 154.891C198.368 154.891 197.814 154.336 197.814 153.652C197.814 152.967 198.368 152.413 199.054 152.413C199.738 152.413 200.293 152.967 200.293 153.652C200.293 154.336 199.738 154.891 199.054 154.891Z" fill="#1290C9"/>
<path d="M199.054 172.239C198.368 172.239 197.814 171.684 197.814 171C197.814 170.315 198.368 169.761 199.054 169.761C199.738 169.761 200.293 170.315 200.293 171C200.293 171.684 199.738 172.239 199.054 172.239Z" fill="#1290C9"/>
<path d="M199.054 189.587C198.368 189.587 197.814 189.032 197.814 188.347C197.814 187.663 198.368 187.109 199.054 187.109C199.738 187.109 200.293 187.663 200.293 188.347C200.293 189.032 199.738 189.587 199.054 189.587Z" fill="#1290C9"/>
<path d="M199.054 205.696C198.368 205.696 197.814 205.141 197.814 204.456C197.814 203.772 198.368 203.217 199.054 203.217C199.738 203.217 200.293 203.772 200.293 204.456C200.293 205.141 199.738 205.696 199.054 205.696Z" fill="#1290C9"/>
<path d="M199.054 205.696C198.368 205.696 197.814 205.141 197.814 204.456C197.814 203.772 198.368 203.217 199.054 203.217C199.738 203.217 200.293 203.772 200.293 204.456C200.293 205.141 199.738 205.696 199.054 205.696Z" fill="#1290C9"/>
<path d="M199.054 223.043C198.368 223.043 197.814 222.488 197.814 221.804C197.814 221.12 198.368 220.565 199.054 220.565C199.738 220.565 200.293 221.12 200.293 221.804C200.293 222.488 199.738 223.043 199.054 223.043Z" fill="#1290C9"/>
<path d="M199.054 240.391C198.368 240.391 197.814 239.836 197.814 239.152C197.814 238.467 198.368 237.913 199.054 237.913C199.738 237.913 200.293 238.467 200.293 239.152C200.293 239.836 199.738 240.391 199.054 240.391Z" fill="#1290C9"/>
<path d="M199.054 256.5C198.368 256.5 197.814 255.945 197.814 255.261C197.814 254.576 198.368 254.022 199.054 254.022C199.738 254.022 200.293 254.576 200.293 255.261C200.293 255.945 199.738 256.5 199.054 256.5Z" fill="#1290C9"/>
<path d="M199.054 273.848C198.368 273.848 197.814 273.293 197.814 272.608C197.814 271.924 198.368 271.37 199.054 271.37C199.738 271.37 200.293 271.924 200.293 272.608C200.293 273.293 199.738 273.848 199.054 273.848Z" fill="#1290C9"/>
<path d="M199.054 256.5C198.368 256.5 197.814 255.945 197.814 255.261C197.814 254.576 198.368 254.022 199.054 254.022C199.738 254.022 200.293 254.576 200.293 255.261C200.293 255.945 199.738 256.5 199.054 256.5Z" fill="#1290C9"/>
<path d="M199.054 273.848C198.368 273.848 197.814 273.293 197.814 272.608C197.814 271.924 198.368 271.37 199.054 271.37C199.738 271.37 200.293 271.924 200.293 272.608C200.293 273.293 199.738 273.848 199.054 273.848Z" fill="#1290C9"/>
<path d="M199.054 273.848C198.368 273.848 197.814 273.293 197.814 272.608C197.814 271.924 198.368 271.37 199.054 271.37C199.738 271.37 200.293 271.924 200.293 272.608C200.293 273.293 199.738 273.848 199.054 273.848Z" fill="#1290C9"/>
<path d="M199.054 291.196C198.368 291.196 197.814 290.641 197.814 289.956C197.814 289.272 198.368 288.717 199.054 288.717C199.738 288.717 200.293 289.272 200.293 289.956C200.293 290.641 199.738 291.196 199.054 291.196Z" fill="#1290C9"/>
<path d="M199.054 307.304C198.368 307.304 197.814 306.749 197.814 306.065C197.814 305.381 198.368 304.826 199.054 304.826C199.738 304.826 200.293 305.381 200.293 306.065C200.293 306.749 199.738 307.304 199.054 307.304Z" fill="#1290C9"/>
<path d="M199.054 324.652C198.368 324.652 197.814 324.097 197.814 323.413C197.814 322.728 198.368 322.174 199.054 322.174C199.738 322.174 200.293 322.728 200.293 323.413C200.293 324.097 199.738 324.652 199.054 324.652Z" fill="#1290C9"/>
<path d="M198.274 341.682C197.335 341.682 196.574 340.92 196.574 339.982C196.574 339.043 197.335 338.283 198.274 338.283C199.213 338.283 199.974 339.043 199.974 339.982C199.974 340.92 199.213 341.682 198.274 341.682Z" fill="#1290C9"/>
<path d="M181.7 2.47826C181.015 2.47826 180.46 1.92324 180.46 1.23879C180.46 0.554339 181.015 2.29349e-08 181.7 1.47675e-08C182.385 6.60822e-09 182.939 0.554339 182.939 1.23879C182.939 1.92324 182.385 2.47826 181.7 2.47826Z" fill="#1290C9"/>
<path d="M181.7 19.8262C181.015 19.8262 180.46 19.2711 180.46 18.5867C180.46 17.9022 181.015 17.3479 181.7 17.3479C182.385 17.3479 182.939 17.9022 182.939 18.5867C182.939 19.2711 182.385 19.8262 181.7 19.8262Z" fill="#1290C9"/>
<path d="M181.7 37.1738C181.015 37.1738 180.46 36.6188 180.46 35.9343C180.46 35.2499 181.015 34.6956 181.7 34.6956C182.385 34.6956 182.939 35.2499 182.939 35.9343C182.939 36.6188 182.385 37.1738 181.7 37.1738Z" fill="#1290C9"/>
<path d="M181.7 53.2827C181.015 53.2827 180.46 52.7277 180.46 52.0432C180.46 51.3588 181.015 50.8044 181.7 50.8044C182.385 50.8044 182.939 51.3588 182.939 52.0432C182.939 52.7277 182.385 53.2827 181.7 53.2827Z" fill="#1290C9"/>
<path d="M181.7 70.6304C181.015 70.6304 180.46 70.0753 180.46 69.3909C180.46 68.7064 181.015 68.1521 181.7 68.1521C182.385 68.1521 182.939 68.7064 182.939 69.3909C182.939 70.0753 182.385 70.6304 181.7 70.6304Z" fill="#1290C9"/>
<path d="M181.7 70.6304C181.015 70.6304 180.46 70.0753 180.46 69.3909C180.46 68.7064 181.015 68.1521 181.7 68.1521C182.385 68.1521 182.939 68.7064 182.939 69.3909C182.939 70.0753 182.385 70.6304 181.7 70.6304Z" fill="#1290C9"/>
<path d="M181.7 87.9783C181.015 87.9783 180.46 87.4232 180.46 86.7388C180.46 86.0543 181.015 85.5 181.7 85.5C182.385 85.5 182.939 86.0543 182.939 86.7388C182.939 87.4232 182.385 87.9783 181.7 87.9783Z" fill="#1290C9"/>
<path d="M181.7 104.087C181.015 104.087 180.46 103.532 180.46 102.847C180.46 102.163 181.015 101.609 181.7 101.609C182.385 101.609 182.939 102.163 182.939 102.847C182.939 103.532 182.385 104.087 181.7 104.087Z" fill="#1290C9"/>
<path d="M181.7 121.435C181.015 121.435 180.46 120.88 180.46 120.195C180.46 119.511 181.015 118.957 181.7 118.957C182.385 118.957 182.939 119.511 182.939 120.195C182.939 120.88 182.385 121.435 181.7 121.435Z" fill="#1290C9"/>
<path d="M181.7 138.783C181.015 138.783 180.46 138.228 180.46 137.543C180.46 136.859 181.015 136.304 181.7 136.304C182.385 136.304 182.939 136.859 182.939 137.543C182.939 138.228 182.385 138.783 181.7 138.783Z" fill="#1290C9"/>
<path d="M181.7 138.783C181.015 138.783 180.46 138.228 180.46 137.543C180.46 136.859 181.015 136.304 181.7 136.304C182.385 136.304 182.939 136.859 182.939 137.543C182.939 138.228 182.385 138.783 181.7 138.783Z" fill="#1290C9"/>
<path d="M181.7 154.891C181.015 154.891 180.46 154.336 180.46 153.652C180.46 152.967 181.015 152.413 181.7 152.413C182.385 152.413 182.939 152.967 182.939 153.652C182.939 154.336 182.385 154.891 181.7 154.891Z" fill="#1290C9"/>
<path d="M181.7 172.239C181.015 172.239 180.46 171.684 180.46 171C180.46 170.315 181.015 169.761 181.7 169.761C182.385 169.761 182.939 170.315 182.939 171C182.939 171.684 182.385 172.239 181.7 172.239Z" fill="#1290C9"/>
<path d="M181.7 189.587C181.015 189.587 180.46 189.032 180.46 188.347C180.46 187.663 181.015 187.109 181.7 187.109C182.385 187.109 182.939 187.663 182.939 188.347C182.939 189.032 182.385 189.587 181.7 189.587Z" fill="#1290C9"/>
<path d="M181.7 205.696C181.015 205.696 180.46 205.141 180.46 204.456C180.46 203.772 181.015 203.217 181.7 203.217C182.385 203.217 182.939 203.772 182.939 204.456C182.939 205.141 182.385 205.696 181.7 205.696Z" fill="#1290C9"/>
<path d="M181.7 205.696C181.015 205.696 180.46 205.141 180.46 204.456C180.46 203.772 181.015 203.217 181.7 203.217C182.385 203.217 182.939 203.772 182.939 204.456C182.939 205.141 182.385 205.696 181.7 205.696Z" fill="#1290C9"/>
<path d="M181.7 223.043C181.015 223.043 180.46 222.488 180.46 221.804C180.46 221.12 181.015 220.565 181.7 220.565C182.385 220.565 182.939 221.12 182.939 221.804C182.939 222.488 182.385 223.043 181.7 223.043Z" fill="#1290C9"/>
<path d="M181.7 240.391C181.015 240.391 180.46 239.836 180.46 239.152C180.46 238.467 181.015 237.913 181.7 237.913C182.385 237.913 182.939 238.467 182.939 239.152C182.939 239.836 182.385 240.391 181.7 240.391Z" fill="#1290C9"/>
<path d="M181.7 256.5C181.015 256.5 180.46 255.945 180.46 255.261C180.46 254.576 181.015 254.022 181.7 254.022C182.385 254.022 182.939 254.576 182.939 255.261C182.939 255.945 182.385 256.5 181.7 256.5Z" fill="#1290C9"/>
<path d="M181.7 273.848C181.015 273.848 180.46 273.293 180.46 272.608C180.46 271.924 181.015 271.37 181.7 271.37C182.385 271.37 182.939 271.924 182.939 272.608C182.939 273.293 182.385 273.848 181.7 273.848Z" fill="#1290C9"/>
<path d="M181.7 256.5C181.015 256.5 180.46 255.945 180.46 255.261C180.46 254.576 181.015 254.022 181.7 254.022C182.385 254.022 182.939 254.576 182.939 255.261C182.939 255.945 182.385 256.5 181.7 256.5Z" fill="#1290C9"/>
<path d="M181.7 273.848C181.015 273.848 180.46 273.293 180.46 272.608C180.46 271.924 181.015 271.37 181.7 271.37C182.385 271.37 182.939 271.924 182.939 272.608C182.939 273.293 182.385 273.848 181.7 273.848Z" fill="#1290C9"/>
<path d="M181.7 273.848C181.015 273.848 180.46 273.293 180.46 272.608C180.46 271.924 181.015 271.37 181.7 271.37C182.385 271.37 182.939 271.924 182.939 272.608C182.939 273.293 182.385 273.848 181.7 273.848Z" fill="#1290C9"/>
<path d="M181.7 291.196C181.015 291.196 180.46 290.641 180.46 289.956C180.46 289.272 181.015 288.717 181.7 288.717C182.385 288.717 182.939 289.272 182.939 289.956C182.939 290.641 182.385 291.196 181.7 291.196Z" fill="#1290C9"/>
<path d="M181.7 307.304C181.015 307.304 180.46 306.749 180.46 306.065C180.46 305.381 181.015 304.826 181.7 304.826C182.385 304.826 182.939 305.381 182.939 306.065C182.939 306.749 182.385 307.304 181.7 307.304Z" fill="#1290C9"/>
<path d="M181.7 324.652C181.015 324.652 180.46 324.097 180.46 323.413C180.46 322.728 181.015 322.174 181.7 322.174C182.385 322.174 182.939 322.728 182.939 323.413C182.939 324.097 182.385 324.652 181.7 324.652Z" fill="#1290C9"/>
<path d="M182.16 341.682C181.221 341.682 180.46 340.92 180.46 339.982C180.46 339.043 181.221 338.283 182.16 338.283C183.099 338.283 183.86 339.043 183.86 339.982C183.86 340.92 183.099 341.682 182.16 341.682Z" fill="#1290C9"/>
<path d="M164.346 2.47826C163.661 2.47826 163.107 1.92324 163.107 1.23879C163.107 0.554339 163.661 2.29349e-08 164.346 1.47675e-08C165.031 6.60822e-09 165.586 0.554339 165.586 1.23879C165.586 1.92324 165.031 2.47826 164.346 2.47826Z" fill="#1290C9"/>
<path d="M164.346 19.8262C163.661 19.8262 163.107 19.2711 163.107 18.5867C163.107 17.9022 163.661 17.3479 164.346 17.3479C165.031 17.3479 165.586 17.9022 165.586 18.5867C165.586 19.2711 165.031 19.8262 164.346 19.8262Z" fill="#1290C9"/>
<path d="M164.346 37.1738C163.661 37.1738 163.107 36.6188 163.107 35.9343C163.107 35.2499 163.661 34.6956 164.346 34.6956C165.031 34.6956 165.586 35.2499 165.586 35.9343C165.586 36.6188 165.031 37.1738 164.346 37.1738Z" fill="#1290C9"/>
<path d="M164.346 53.2827C163.661 53.2827 163.107 52.7277 163.107 52.0432C163.107 51.3588 163.661 50.8044 164.346 50.8044C165.031 50.8044 165.586 51.3588 165.586 52.0432C165.586 52.7277 165.031 53.2827 164.346 53.2827Z" fill="#1290C9"/>
<path d="M164.346 70.6304C163.661 70.6304 163.107 70.0753 163.107 69.3909C163.107 68.7064 163.661 68.1521 164.346 68.1521C165.031 68.1521 165.586 68.7064 165.586 69.3909C165.586 70.0753 165.031 70.6304 164.346 70.6304Z" fill="#1290C9"/>
<path d="M164.346 70.6304C163.661 70.6304 163.107 70.0753 163.107 69.3909C163.107 68.7064 163.661 68.1521 164.346 68.1521C165.031 68.1521 165.586 68.7064 165.586 69.3909C165.586 70.0753 165.031 70.6304 164.346 70.6304Z" fill="#1290C9"/>
<path d="M164.346 87.9783C163.661 87.9783 163.107 87.4232 163.107 86.7388C163.107 86.0543 163.661 85.5 164.346 85.5C165.031 85.5 165.586 86.0543 165.586 86.7388C165.586 87.4232 165.031 87.9783 164.346 87.9783Z" fill="#1290C9"/>
<path d="M164.346 104.087C163.661 104.087 163.107 103.532 163.107 102.847C163.107 102.163 163.661 101.609 164.346 101.609C165.031 101.609 165.586 102.163 165.586 102.847C165.586 103.532 165.031 104.087 164.346 104.087Z" fill="#1290C9"/>
<path d="M164.346 121.435C163.661 121.435 163.107 120.88 163.107 120.195C163.107 119.511 163.661 118.957 164.346 118.957C165.031 118.957 165.586 119.511 165.586 120.195C165.586 120.88 165.031 121.435 164.346 121.435Z" fill="#1290C9"/>
<path d="M164.346 138.783C163.661 138.783 163.107 138.228 163.107 137.543C163.107 136.859 163.661 136.304 164.346 136.304C165.031 136.304 165.586 136.859 165.586 137.543C165.586 138.228 165.031 138.783 164.346 138.783Z" fill="#1290C9"/>
<path d="M164.346 138.783C163.661 138.783 163.107 138.228 163.107 137.543C163.107 136.859 163.661 136.304 164.346 136.304C165.031 136.304 165.586 136.859 165.586 137.543C165.586 138.228 165.031 138.783 164.346 138.783Z" fill="#1290C9"/>
<path d="M164.346 154.891C163.661 154.891 163.107 154.336 163.107 153.652C163.107 152.967 163.661 152.413 164.346 152.413C165.031 152.413 165.586 152.967 165.586 153.652C165.586 154.336 165.031 154.891 164.346 154.891Z" fill="#1290C9"/>
<path d="M164.346 172.239C163.661 172.239 163.107 171.684 163.107 171C163.107 170.315 163.661 169.761 164.346 169.761C165.031 169.761 165.586 170.315 165.586 171C165.586 171.684 165.031 172.239 164.346 172.239Z" fill="#1290C9"/>
<path d="M164.346 189.587C163.661 189.587 163.107 189.032 163.107 188.347C163.107 187.663 163.661 187.109 164.346 187.109C165.031 187.109 165.586 187.663 165.586 188.347C165.586 189.032 165.031 189.587 164.346 189.587Z" fill="#1290C9"/>
<path d="M164.346 205.696C163.661 205.696 163.107 205.141 163.107 204.456C163.107 203.772 163.661 203.217 164.346 203.217C165.031 203.217 165.586 203.772 165.586 204.456C165.586 205.141 165.031 205.696 164.346 205.696Z" fill="#1290C9"/>
<path d="M164.346 205.696C163.661 205.696 163.107 205.141 163.107 204.456C163.107 203.772 163.661 203.217 164.346 203.217C165.031 203.217 165.586 203.772 165.586 204.456C165.586 205.141 165.031 205.696 164.346 205.696Z" fill="#1290C9"/>
<path d="M164.346 223.043C163.661 223.043 163.107 222.488 163.107 221.804C163.107 221.12 163.661 220.565 164.346 220.565C165.031 220.565 165.586 221.12 165.586 221.804C165.586 222.488 165.031 223.043 164.346 223.043Z" fill="#1290C9"/>
<path d="M164.346 240.391C163.661 240.391 163.107 239.836 163.107 239.152C163.107 238.467 163.661 237.913 164.346 237.913C165.031 237.913 165.586 238.467 165.586 239.152C165.586 239.836 165.031 240.391 164.346 240.391Z" fill="#1290C9"/>
<path d="M164.346 256.5C163.661 256.5 163.107 255.945 163.107 255.261C163.107 254.576 163.661 254.022 164.346 254.022C165.031 254.022 165.586 254.576 165.586 255.261C165.586 255.945 165.031 256.5 164.346 256.5Z" fill="#1290C9"/>
<path d="M164.346 273.848C163.661 273.848 163.107 273.293 163.107 272.608C163.107 271.924 163.661 271.37 164.346 271.37C165.031 271.37 165.586 271.924 165.586 272.608C165.586 273.293 165.031 273.848 164.346 273.848Z" fill="#1290C9"/>
<path d="M164.346 256.5C163.661 256.5 163.107 255.945 163.107 255.261C163.107 254.576 163.661 254.022 164.346 254.022C165.031 254.022 165.586 254.576 165.586 255.261C165.586 255.945 165.031 256.5 164.346 256.5Z" fill="#1290C9"/>
<path d="M164.346 273.848C163.661 273.848 163.107 273.293 163.107 272.608C163.107 271.924 163.661 271.37 164.346 271.37C165.031 271.37 165.586 271.924 165.586 272.608C165.586 273.293 165.031 273.848 164.346 273.848Z" fill="#1290C9"/>
<path d="M164.346 273.848C163.661 273.848 163.107 273.293 163.107 272.608C163.107 271.924 163.661 271.37 164.346 271.37C165.031 271.37 165.586 271.924 165.586 272.608C165.586 273.293 165.031 273.848 164.346 273.848Z" fill="#1290C9"/>
<path d="M164.346 291.196C163.661 291.196 163.107 290.641 163.107 289.956C163.107 289.272 163.661 288.717 164.346 288.717C165.031 288.717 165.586 289.272 165.586 289.956C165.586 290.641 165.031 291.196 164.346 291.196Z" fill="#1290C9"/>
<path d="M164.346 307.304C163.661 307.304 163.107 306.749 163.107 306.065C163.107 305.381 163.661 304.826 164.346 304.826C165.031 304.826 165.586 305.381 165.586 306.065C165.586 306.749 165.031 307.304 164.346 307.304Z" fill="#1290C9"/>
<path d="M164.346 324.652C163.661 324.652 163.107 324.097 163.107 323.413C163.107 322.728 163.661 322.174 164.346 322.174C165.031 322.174 165.586 322.728 165.586 323.413C165.586 324.097 165.031 324.652 164.346 324.652Z" fill="#1290C9"/>
<path d="M164.807 341.682C163.867 341.682 163.107 340.92 163.107 339.982C163.107 339.043 163.867 338.283 164.807 338.283C165.746 338.283 166.506 339.043 166.506 339.982C166.506 340.92 165.746 341.682 164.807 341.682Z" fill="#1290C9"/>
<path d="M148.232 2.47826C147.547 2.47826 146.993 1.92324 146.993 1.23879C146.993 0.554339 147.547 2.29349e-08 148.232 1.47675e-08C148.917 6.60822e-09 149.472 0.554339 149.472 1.23879C149.472 1.92324 148.917 2.47826 148.232 2.47826Z" fill="#1290C9"/>
<path d="M148.232 19.8262C147.547 19.8262 146.993 19.2711 146.993 18.5867C146.993 17.9022 147.547 17.3479 148.232 17.3479C148.917 17.3479 149.472 17.9022 149.472 18.5867C149.472 19.2711 148.917 19.8262 148.232 19.8262Z" fill="#1290C9"/>
<path d="M148.232 37.1738C147.547 37.1738 146.993 36.6188 146.993 35.9343C146.993 35.2499 147.547 34.6956 148.232 34.6956C148.917 34.6956 149.472 35.2499 149.472 35.9343C149.472 36.6188 148.917 37.1738 148.232 37.1738Z" fill="#1290C9"/>
<path d="M148.232 53.2827C147.547 53.2827 146.993 52.7277 146.993 52.0432C146.993 51.3588 147.547 50.8044 148.232 50.8044C148.917 50.8044 149.472 51.3588 149.472 52.0432C149.472 52.7277 148.917 53.2827 148.232 53.2827Z" fill="#1290C9"/>
<path d="M148.232 70.6304C147.547 70.6304 146.993 70.0753 146.993 69.3909C146.993 68.7064 147.547 68.1521 148.232 68.1521C148.917 68.1521 149.472 68.7064 149.472 69.3909C149.472 70.0753 148.917 70.6304 148.232 70.6304Z" fill="#1290C9"/>
<path d="M148.232 70.6304C147.547 70.6304 146.993 70.0753 146.993 69.3909C146.993 68.7064 147.547 68.1521 148.232 68.1521C148.917 68.1521 149.472 68.7064 149.472 69.3909C149.472 70.0753 148.917 70.6304 148.232 70.6304Z" fill="#1290C9"/>
<path d="M148.232 87.9783C147.547 87.9783 146.993 87.4232 146.993 86.7388C146.993 86.0543 147.547 85.5 148.232 85.5C148.917 85.5 149.472 86.0543 149.472 86.7388C149.472 87.4232 148.917 87.9783 148.232 87.9783Z" fill="#1290C9"/>
<path d="M148.232 104.087C147.547 104.087 146.993 103.532 146.993 102.847C146.993 102.163 147.547 101.609 148.232 101.609C148.917 101.609 149.472 102.163 149.472 102.847C149.472 103.532 148.917 104.087 148.232 104.087Z" fill="#1290C9"/>
<path d="M148.232 121.435C147.547 121.435 146.993 120.88 146.993 120.195C146.993 119.511 147.547 118.957 148.232 118.957C148.917 118.957 149.472 119.511 149.472 120.195C149.472 120.88 148.917 121.435 148.232 121.435Z" fill="#1290C9"/>
<path d="M148.232 138.783C147.547 138.783 146.993 138.228 146.993 137.543C146.993 136.859 147.547 136.304 148.232 136.304C148.917 136.304 149.472 136.859 149.472 137.543C149.472 138.228 148.917 138.783 148.232 138.783Z" fill="#1290C9"/>
<path d="M148.232 138.783C147.547 138.783 146.993 138.228 146.993 137.543C146.993 136.859 147.547 136.304 148.232 136.304C148.917 136.304 149.472 136.859 149.472 137.543C149.472 138.228 148.917 138.783 148.232 138.783Z" fill="#1290C9"/>
<path d="M148.232 154.891C147.547 154.891 146.993 154.336 146.993 153.652C146.993 152.967 147.547 152.413 148.232 152.413C148.917 152.413 149.472 152.967 149.472 153.652C149.472 154.336 148.917 154.891 148.232 154.891Z" fill="#1290C9"/>
<path d="M148.232 172.239C147.547 172.239 146.993 171.684 146.993 171C146.993 170.315 147.547 169.761 148.232 169.761C148.917 169.761 149.472 170.315 149.472 171C149.472 171.684 148.917 172.239 148.232 172.239Z" fill="#1290C9"/>
<path d="M148.232 189.587C147.547 189.587 146.993 189.032 146.993 188.347C146.993 187.663 147.547 187.109 148.232 187.109C148.917 187.109 149.472 187.663 149.472 188.347C149.472 189.032 148.917 189.587 148.232 189.587Z" fill="#1290C9"/>
<path d="M148.232 205.696C147.547 205.696 146.993 205.141 146.993 204.456C146.993 203.772 147.547 203.217 148.232 203.217C148.917 203.217 149.472 203.772 149.472 204.456C149.472 205.141 148.917 205.696 148.232 205.696Z" fill="#1290C9"/>
<path d="M148.232 205.696C147.547 205.696 146.993 205.141 146.993 204.456C146.993 203.772 147.547 203.217 148.232 203.217C148.917 203.217 149.472 203.772 149.472 204.456C149.472 205.141 148.917 205.696 148.232 205.696Z" fill="#1290C9"/>
<path d="M148.232 223.043C147.547 223.043 146.993 222.488 146.993 221.804C146.993 221.12 147.547 220.565 148.232 220.565C148.917 220.565 149.472 221.12 149.472 221.804C149.472 222.488 148.917 223.043 148.232 223.043Z" fill="#1290C9"/>
<path d="M148.232 240.391C147.547 240.391 146.993 239.836 146.993 239.152C146.993 238.467 147.547 237.913 148.232 237.913C148.917 237.913 149.472 238.467 149.472 239.152C149.472 239.836 148.917 240.391 148.232 240.391Z" fill="#1290C9"/>
<path d="M148.232 256.5C147.547 256.5 146.993 255.945 146.993 255.261C146.993 254.576 147.547 254.022 148.232 254.022C148.917 254.022 149.472 254.576 149.472 255.261C149.472 255.945 148.917 256.5 148.232 256.5Z" fill="#1290C9"/>
<path d="M148.232 273.848C147.547 273.848 146.993 273.293 146.993 272.608C146.993 271.924 147.547 271.37 148.232 271.37C148.917 271.37 149.472 271.924 149.472 272.608C149.472 273.293 148.917 273.848 148.232 273.848Z" fill="#1290C9"/>
<path d="M148.232 256.5C147.547 256.5 146.993 255.945 146.993 255.261C146.993 254.576 147.547 254.022 148.232 254.022C148.917 254.022 149.472 254.576 149.472 255.261C149.472 255.945 148.917 256.5 148.232 256.5Z" fill="#1290C9"/>
<path d="M148.232 273.848C147.547 273.848 146.993 273.293 146.993 272.608C146.993 271.924 147.547 271.37 148.232 271.37C148.917 271.37 149.472 271.924 149.472 272.608C149.472 273.293 148.917 273.848 148.232 273.848Z" fill="#1290C9"/>
<path d="M148.232 273.848C147.547 273.848 146.993 273.293 146.993 272.608C146.993 271.924 147.547 271.37 148.232 271.37C148.917 271.37 149.472 271.924 149.472 272.608C149.472 273.293 148.917 273.848 148.232 273.848Z" fill="#1290C9"/>
<path d="M148.232 291.196C147.547 291.196 146.993 290.641 146.993 289.956C146.993 289.272 147.547 288.717 148.232 288.717C148.917 288.717 149.472 289.272 149.472 289.956C149.472 290.641 148.917 291.196 148.232 291.196Z" fill="#1290C9"/>
<path d="M148.232 307.304C147.547 307.304 146.993 306.749 146.993 306.065C146.993 305.381 147.547 304.826 148.232 304.826C148.917 304.826 149.472 305.381 149.472 306.065C149.472 306.749 148.917 307.304 148.232 307.304Z" fill="#1290C9"/>
<path d="M148.232 324.652C147.547 324.652 146.993 324.097 146.993 323.413C146.993 322.728 147.547 322.174 148.232 322.174C148.917 322.174 149.472 322.728 149.472 323.413C149.472 324.097 148.917 324.652 148.232 324.652Z" fill="#1290C9"/>
<path d="M147.453 341.682C146.513 341.682 145.753 340.92 145.753 339.982C145.753 339.043 146.513 338.283 147.453 338.283C148.392 338.283 149.153 339.043 149.153 339.982C149.153 340.92 148.392 341.682 147.453 341.682Z" fill="#1290C9"/>
<path d="M130.879 2.47826C130.193 2.47826 129.639 1.92324 129.639 1.23879C129.639 0.554339 130.193 2.29349e-08 130.879 1.47675e-08C131.563 6.60822e-09 132.118 0.554339 132.118 1.23879C132.118 1.92324 131.563 2.47826 130.879 2.47826Z" fill="#1290C9"/>
<path d="M130.879 19.8262C130.193 19.8262 129.639 19.2711 129.639 18.5867C129.639 17.9022 130.193 17.3479 130.879 17.3479C131.563 17.3479 132.118 17.9022 132.118 18.5867C132.118 19.2711 131.563 19.8262 130.879 19.8262Z" fill="#1290C9"/>
<path d="M130.879 37.1738C130.193 37.1738 129.639 36.6188 129.639 35.9343C129.639 35.2499 130.193 34.6956 130.879 34.6956C131.563 34.6956 132.118 35.2499 132.118 35.9343C132.118 36.6188 131.563 37.1738 130.879 37.1738Z" fill="#1290C9"/>
<path d="M130.879 53.2827C130.193 53.2827 129.639 52.7277 129.639 52.0432C129.639 51.3588 130.193 50.8044 130.879 50.8044C131.563 50.8044 132.118 51.3588 132.118 52.0432C132.118 52.7277 131.563 53.2827 130.879 53.2827Z" fill="#1290C9"/>
<path d="M130.879 70.6304C130.193 70.6304 129.639 70.0753 129.639 69.3909C129.639 68.7064 130.193 68.1521 130.879 68.1521C131.563 68.1521 132.118 68.7064 132.118 69.3909C132.118 70.0753 131.563 70.6304 130.879 70.6304Z" fill="#1290C9"/>
<path d="M130.879 70.6304C130.193 70.6304 129.639 70.0753 129.639 69.3909C129.639 68.7064 130.193 68.1521 130.879 68.1521C131.563 68.1521 132.118 68.7064 132.118 69.3909C132.118 70.0753 131.563 70.6304 130.879 70.6304Z" fill="#1290C9"/>
<path d="M130.879 87.9783C130.193 87.9783 129.639 87.4232 129.639 86.7388C129.639 86.0543 130.193 85.5 130.879 85.5C131.563 85.5 132.118 86.0543 132.118 86.7388C132.118 87.4232 131.563 87.9783 130.879 87.9783Z" fill="#1290C9"/>
<path d="M130.879 104.087C130.193 104.087 129.639 103.532 129.639 102.847C129.639 102.163 130.193 101.609 130.879 101.609C131.563 101.609 132.118 102.163 132.118 102.847C132.118 103.532 131.563 104.087 130.879 104.087Z" fill="#1290C9"/>
<path d="M130.879 121.435C130.193 121.435 129.639 120.88 129.639 120.195C129.639 119.511 130.193 118.957 130.879 118.957C131.563 118.957 132.118 119.511 132.118 120.195C132.118 120.88 131.563 121.435 130.879 121.435Z" fill="#1290C9"/>
<path d="M130.879 138.783C130.193 138.783 129.639 138.228 129.639 137.543C129.639 136.859 130.193 136.304 130.879 136.304C131.563 136.304 132.118 136.859 132.118 137.543C132.118 138.228 131.563 138.783 130.879 138.783Z" fill="#1290C9"/>
<path d="M130.879 138.783C130.193 138.783 129.639 138.228 129.639 137.543C129.639 136.859 130.193 136.304 130.879 136.304C131.563 136.304 132.118 136.859 132.118 137.543C132.118 138.228 131.563 138.783 130.879 138.783Z" fill="#1290C9"/>
<path d="M130.879 154.891C130.193 154.891 129.639 154.336 129.639 153.652C129.639 152.967 130.193 152.413 130.879 152.413C131.563 152.413 132.118 152.967 132.118 153.652C132.118 154.336 131.563 154.891 130.879 154.891Z" fill="#1290C9"/>
<path d="M130.879 172.239C130.193 172.239 129.639 171.684 129.639 171C129.639 170.315 130.193 169.761 130.879 169.761C131.563 169.761 132.118 170.315 132.118 171C132.118 171.684 131.563 172.239 130.879 172.239Z" fill="#1290C9"/>
<path d="M130.879 189.587C130.193 189.587 129.639 189.032 129.639 188.347C129.639 187.663 130.193 187.109 130.879 187.109C131.563 187.109 132.118 187.663 132.118 188.347C132.118 189.032 131.563 189.587 130.879 189.587Z" fill="#1290C9"/>
<path d="M130.879 205.696C130.193 205.696 129.639 205.141 129.639 204.456C129.639 203.772 130.193 203.217 130.879 203.217C131.563 203.217 132.118 203.772 132.118 204.456C132.118 205.141 131.563 205.696 130.879 205.696Z" fill="#1290C9"/>
<path d="M130.879 205.696C130.193 205.696 129.639 205.141 129.639 204.456C129.639 203.772 130.193 203.217 130.879 203.217C131.563 203.217 132.118 203.772 132.118 204.456C132.118 205.141 131.563 205.696 130.879 205.696Z" fill="#1290C9"/>
<path d="M130.879 223.043C130.193 223.043 129.639 222.488 129.639 221.804C129.639 221.12 130.193 220.565 130.879 220.565C131.563 220.565 132.118 221.12 132.118 221.804C132.118 222.488 131.563 223.043 130.879 223.043Z" fill="#1290C9"/>
<path d="M130.879 240.391C130.193 240.391 129.639 239.836 129.639 239.152C129.639 238.467 130.193 237.913 130.879 237.913C131.563 237.913 132.118 238.467 132.118 239.152C132.118 239.836 131.563 240.391 130.879 240.391Z" fill="#1290C9"/>
<path d="M130.879 256.5C130.193 256.5 129.639 255.945 129.639 255.261C129.639 254.576 130.193 254.022 130.879 254.022C131.563 254.022 132.118 254.576 132.118 255.261C132.118 255.945 131.563 256.5 130.879 256.5Z" fill="#1290C9"/>
<path d="M130.879 273.848C130.193 273.848 129.639 273.293 129.639 272.608C129.639 271.924 130.193 271.37 130.879 271.37C131.563 271.37 132.118 271.924 132.118 272.608C132.118 273.293 131.563 273.848 130.879 273.848Z" fill="#1290C9"/>
<path d="M130.879 256.5C130.193 256.5 129.639 255.945 129.639 255.261C129.639 254.576 130.193 254.022 130.879 254.022C131.563 254.022 132.118 254.576 132.118 255.261C132.118 255.945 131.563 256.5 130.879 256.5Z" fill="#1290C9"/>
<path d="M130.879 273.848C130.193 273.848 129.639 273.293 129.639 272.608C129.639 271.924 130.193 271.37 130.879 271.37C131.563 271.37 132.118 271.924 132.118 272.608C132.118 273.293 131.563 273.848 130.879 273.848Z" fill="#1290C9"/>
<path d="M130.879 273.848C130.193 273.848 129.639 273.293 129.639 272.608C129.639 271.924 130.193 271.37 130.879 271.37C131.563 271.37 132.118 271.924 132.118 272.608C132.118 273.293 131.563 273.848 130.879 273.848Z" fill="#1290C9"/>
<path d="M130.879 291.196C130.193 291.196 129.639 290.641 129.639 289.956C129.639 289.272 130.193 288.717 130.879 288.717C131.563 288.717 132.118 289.272 132.118 289.956C132.118 290.641 131.563 291.196 130.879 291.196Z" fill="#1290C9"/>
<path d="M130.879 307.304C130.193 307.304 129.639 306.749 129.639 306.065C129.639 305.381 130.193 304.826 130.879 304.826C131.563 304.826 132.118 305.381 132.118 306.065C132.118 306.749 131.563 307.304 130.879 307.304Z" fill="#1290C9"/>
<path d="M130.879 324.652C130.193 324.652 129.639 324.097 129.639 323.413C129.639 322.728 130.193 322.174 130.879 322.174C131.563 322.174 132.118 322.728 132.118 323.413C132.118 324.097 131.563 324.652 130.879 324.652Z" fill="#1290C9"/>
<path d="M131.339 341.682C130.399 341.682 129.639 340.92 129.639 339.982C129.639 339.043 130.399 338.283 131.339 338.283C132.278 338.283 133.039 339.043 133.039 339.982C133.039 340.92 132.278 341.682 131.339 341.682Z" fill="#1290C9"/>
<path d="M113.525 2.47826C112.84 2.47826 112.285 1.92324 112.285 1.23879C112.285 0.554339 112.84 2.29349e-08 113.525 1.47675e-08C114.21 6.60822e-09 114.764 0.554339 114.764 1.23879C114.764 1.92324 114.21 2.47826 113.525 2.47826Z" fill="#1290C9"/>
<path d="M113.525 19.8262C112.84 19.8262 112.285 19.2711 112.285 18.5867C112.285 17.9022 112.84 17.3479 113.525 17.3479C114.21 17.3479 114.764 17.9022 114.764 18.5867C114.764 19.2711 114.21 19.8262 113.525 19.8262Z" fill="#1290C9"/>
<path d="M113.525 37.1738C112.84 37.1738 112.285 36.6188 112.285 35.9343C112.285 35.2499 112.84 34.6956 113.525 34.6956C114.21 34.6956 114.764 35.2499 114.764 35.9343C114.764 36.6188 114.21 37.1738 113.525 37.1738Z" fill="#1290C9"/>
<path d="M113.525 53.2827C112.84 53.2827 112.285 52.7277 112.285 52.0432C112.285 51.3588 112.84 50.8044 113.525 50.8044C114.21 50.8044 114.764 51.3588 114.764 52.0432C114.764 52.7277 114.21 53.2827 113.525 53.2827Z" fill="#1290C9"/>
<path d="M113.525 70.6304C112.84 70.6304 112.285 70.0753 112.285 69.3909C112.285 68.7064 112.84 68.1521 113.525 68.1521C114.21 68.1521 114.764 68.7064 114.764 69.3909C114.764 70.0753 114.21 70.6304 113.525 70.6304Z" fill="#1290C9"/>
<path d="M113.525 70.6304C112.84 70.6304 112.285 70.0753 112.285 69.3909C112.285 68.7064 112.84 68.1521 113.525 68.1521C114.21 68.1521 114.764 68.7064 114.764 69.3909C114.764 70.0753 114.21 70.6304 113.525 70.6304Z" fill="#1290C9"/>
<path d="M113.525 87.9783C112.84 87.9783 112.285 87.4232 112.285 86.7388C112.285 86.0543 112.84 85.5 113.525 85.5C114.21 85.5 114.764 86.0543 114.764 86.7388C114.764 87.4232 114.21 87.9783 113.525 87.9783Z" fill="#1290C9"/>
<path d="M113.525 104.087C112.84 104.087 112.285 103.532 112.285 102.847C112.285 102.163 112.84 101.609 113.525 101.609C114.21 101.609 114.764 102.163 114.764 102.847C114.764 103.532 114.21 104.087 113.525 104.087Z" fill="#1290C9"/>
<path d="M113.525 121.435C112.84 121.435 112.285 120.88 112.285 120.195C112.285 119.511 112.84 118.957 113.525 118.957C114.21 118.957 114.764 119.511 114.764 120.195C114.764 120.88 114.21 121.435 113.525 121.435Z" fill="#1290C9"/>
<path d="M113.525 138.783C112.84 138.783 112.285 138.228 112.285 137.543C112.285 136.859 112.84 136.304 113.525 136.304C114.21 136.304 114.764 136.859 114.764 137.543C114.764 138.228 114.21 138.783 113.525 138.783Z" fill="#1290C9"/>
<path d="M113.525 138.783C112.84 138.783 112.285 138.228 112.285 137.543C112.285 136.859 112.84 136.304 113.525 136.304C114.21 136.304 114.764 136.859 114.764 137.543C114.764 138.228 114.21 138.783 113.525 138.783Z" fill="#1290C9"/>
<path d="M113.525 154.891C112.84 154.891 112.285 154.336 112.285 153.652C112.285 152.967 112.84 152.413 113.525 152.413C114.21 152.413 114.764 152.967 114.764 153.652C114.764 154.336 114.21 154.891 113.525 154.891Z" fill="#1290C9"/>
<path d="M113.525 172.239C112.84 172.239 112.285 171.684 112.285 171C112.285 170.315 112.84 169.761 113.525 169.761C114.21 169.761 114.764 170.315 114.764 171C114.764 171.684 114.21 172.239 113.525 172.239Z" fill="#1290C9"/>
<path d="M113.525 189.587C112.84 189.587 112.285 189.032 112.285 188.347C112.285 187.663 112.84 187.109 113.525 187.109C114.21 187.109 114.764 187.663 114.764 188.347C114.764 189.032 114.21 189.587 113.525 189.587Z" fill="#1290C9"/>
<path d="M113.525 205.696C112.84 205.696 112.285 205.141 112.285 204.456C112.285 203.772 112.84 203.217 113.525 203.217C114.21 203.217 114.764 203.772 114.764 204.456C114.764 205.141 114.21 205.696 113.525 205.696Z" fill="#1290C9"/>
<path d="M113.525 205.696C112.84 205.696 112.285 205.141 112.285 204.456C112.285 203.772 112.84 203.217 113.525 203.217C114.21 203.217 114.764 203.772 114.764 204.456C114.764 205.141 114.21 205.696 113.525 205.696Z" fill="#1290C9"/>
<path d="M113.525 223.043C112.84 223.043 112.285 222.488 112.285 221.804C112.285 221.12 112.84 220.565 113.525 220.565C114.21 220.565 114.764 221.12 114.764 221.804C114.764 222.488 114.21 223.043 113.525 223.043Z" fill="#1290C9"/>
<path d="M113.525 240.391C112.84 240.391 112.285 239.836 112.285 239.152C112.285 238.467 112.84 237.913 113.525 237.913C114.21 237.913 114.764 238.467 114.764 239.152C114.764 239.836 114.21 240.391 113.525 240.391Z" fill="#1290C9"/>
<path d="M113.525 256.5C112.84 256.5 112.285 255.945 112.285 255.261C112.285 254.576 112.84 254.022 113.525 254.022C114.21 254.022 114.764 254.576 114.764 255.261C114.764 255.945 114.21 256.5 113.525 256.5Z" fill="#1290C9"/>
<path d="M113.525 273.848C112.84 273.848 112.285 273.293 112.285 272.608C112.285 271.924 112.84 271.37 113.525 271.37C114.21 271.37 114.764 271.924 114.764 272.608C114.764 273.293 114.21 273.848 113.525 273.848Z" fill="#1290C9"/>
<path d="M113.525 256.5C112.84 256.5 112.285 255.945 112.285 255.261C112.285 254.576 112.84 254.022 113.525 254.022C114.21 254.022 114.764 254.576 114.764 255.261C114.764 255.945 114.21 256.5 113.525 256.5Z" fill="#1290C9"/>
<path d="M113.525 273.848C112.84 273.848 112.285 273.293 112.285 272.608C112.285 271.924 112.84 271.37 113.525 271.37C114.21 271.37 114.764 271.924 114.764 272.608C114.764 273.293 114.21 273.848 113.525 273.848Z" fill="#1290C9"/>
<path d="M113.525 273.848C112.84 273.848 112.285 273.293 112.285 272.608C112.285 271.924 112.84 271.37 113.525 271.37C114.21 271.37 114.764 271.924 114.764 272.608C114.764 273.293 114.21 273.848 113.525 273.848Z" fill="#1290C9"/>
<path d="M113.525 291.196C112.84 291.196 112.285 290.641 112.285 289.956C112.285 289.272 112.84 288.717 113.525 288.717C114.21 288.717 114.764 289.272 114.764 289.956C114.764 290.641 114.21 291.196 113.525 291.196Z" fill="#1290C9"/>
<path d="M113.525 307.304C112.84 307.304 112.285 306.749 112.285 306.065C112.285 305.381 112.84 304.826 113.525 304.826C114.21 304.826 114.764 305.381 114.764 306.065C114.764 306.749 114.21 307.304 113.525 307.304Z" fill="#1290C9"/>
<path d="M113.525 324.652C112.84 324.652 112.285 324.097 112.285 323.413C112.285 322.728 112.84 322.174 113.525 322.174C114.21 322.174 114.764 322.728 114.764 323.413C114.764 324.097 114.21 324.652 113.525 324.652Z" fill="#1290C9"/>
<path d="M113.986 341.682C113.046 341.682 112.285 340.92 112.285 339.982C112.285 339.043 113.046 338.283 113.986 338.283C114.925 338.283 115.685 339.043 115.685 339.982C115.685 340.92 114.925 341.682 113.986 341.682Z" fill="#1290C9"/>
<path d="M97.4112 2.47826C96.7258 2.47826 96.1713 1.92324 96.1713 1.23879C96.1713 0.554339 96.7258 2.29349e-08 97.4112 1.47675e-08C98.0959 6.60822e-09 98.6504 0.554339 98.6504 1.23879C98.6504 1.92324 98.0959 2.47826 97.4112 2.47826Z" fill="#1290C9"/>
<path d="M97.4112 19.8262C96.7258 19.8262 96.1713 19.2711 96.1713 18.5867C96.1713 17.9022 96.7258 17.3479 97.4112 17.3479C98.0959 17.3479 98.6504 17.9022 98.6504 18.5867C98.6504 19.2711 98.0959 19.8262 97.4112 19.8262Z" fill="#1290C9"/>
<path d="M97.4112 37.1738C96.7258 37.1738 96.1713 36.6188 96.1713 35.9343C96.1713 35.2499 96.7258 34.6956 97.4112 34.6956C98.0959 34.6956 98.6504 35.2499 98.6504 35.9343C98.6504 36.6188 98.0959 37.1738 97.4112 37.1738Z" fill="#1290C9"/>
<path d="M97.4112 53.2827C96.7258 53.2827 96.1713 52.7277 96.1713 52.0432C96.1713 51.3588 96.7258 50.8044 97.4112 50.8044C98.0959 50.8044 98.6504 51.3588 98.6504 52.0432C98.6504 52.7277 98.0959 53.2827 97.4112 53.2827Z" fill="#1290C9"/>
<path d="M97.4112 70.6304C96.7258 70.6304 96.1713 70.0753 96.1713 69.3909C96.1713 68.7064 96.7258 68.1521 97.4112 68.1521C98.0959 68.1521 98.6504 68.7064 98.6504 69.3909C98.6504 70.0753 98.0959 70.6304 97.4112 70.6304Z" fill="#1290C9"/>
<path d="M97.4112 70.6304C96.7258 70.6304 96.1713 70.0753 96.1713 69.3909C96.1713 68.7064 96.7258 68.1521 97.4112 68.1521C98.0959 68.1521 98.6504 68.7064 98.6504 69.3909C98.6504 70.0753 98.0959 70.6304 97.4112 70.6304Z" fill="#1290C9"/>
<path d="M97.4112 87.9783C96.7258 87.9783 96.1713 87.4232 96.1713 86.7388C96.1713 86.0543 96.7258 85.5 97.4112 85.5C98.0959 85.5 98.6504 86.0543 98.6504 86.7388C98.6504 87.4232 98.0959 87.9783 97.4112 87.9783Z" fill="#1290C9"/>
<path d="M97.4112 104.087C96.7258 104.087 96.1713 103.532 96.1713 102.847C96.1713 102.163 96.7258 101.609 97.4112 101.609C98.0959 101.609 98.6504 102.163 98.6504 102.847C98.6504 103.532 98.0959 104.087 97.4112 104.087Z" fill="#1290C9"/>
<path d="M97.4112 121.435C96.7258 121.435 96.1713 120.88 96.1713 120.195C96.1713 119.511 96.7258 118.957 97.4112 118.957C98.0959 118.957 98.6504 119.511 98.6504 120.195C98.6504 120.88 98.0959 121.435 97.4112 121.435Z" fill="#1290C9"/>
<path d="M97.4112 138.783C96.7258 138.783 96.1713 138.228 96.1713 137.543C96.1713 136.859 96.7258 136.304 97.4112 136.304C98.0959 136.304 98.6504 136.859 98.6504 137.543C98.6504 138.228 98.0959 138.783 97.4112 138.783Z" fill="#1290C9"/>
<path d="M97.4112 138.783C96.7258 138.783 96.1713 138.228 96.1713 137.543C96.1713 136.859 96.7258 136.304 97.4112 136.304C98.0959 136.304 98.6504 136.859 98.6504 137.543C98.6504 138.228 98.0959 138.783 97.4112 138.783Z" fill="#1290C9"/>
<path d="M97.4112 154.891C96.7258 154.891 96.1713 154.336 96.1713 153.652C96.1713 152.967 96.7258 152.413 97.4112 152.413C98.0959 152.413 98.6504 152.967 98.6504 153.652C98.6504 154.336 98.0959 154.891 97.4112 154.891Z" fill="#1290C9"/>
<path d="M97.4112 172.239C96.7258 172.239 96.1713 171.684 96.1713 171C96.1713 170.315 96.7258 169.761 97.4112 169.761C98.0959 169.761 98.6504 170.315 98.6504 171C98.6504 171.684 98.0959 172.239 97.4112 172.239Z" fill="#1290C9"/>
<path d="M97.4112 189.587C96.7258 189.587 96.1713 189.032 96.1713 188.347C96.1713 187.663 96.7258 187.109 97.4112 187.109C98.0959 187.109 98.6504 187.663 98.6504 188.347C98.6504 189.032 98.0959 189.587 97.4112 189.587Z" fill="#1290C9"/>
<path d="M97.4112 205.696C96.7258 205.696 96.1713 205.141 96.1713 204.456C96.1713 203.772 96.7258 203.217 97.4112 203.217C98.0959 203.217 98.6504 203.772 98.6504 204.456C98.6504 205.141 98.0959 205.696 97.4112 205.696Z" fill="#1290C9"/>
<path d="M97.4112 205.696C96.7258 205.696 96.1713 205.141 96.1713 204.456C96.1713 203.772 96.7258 203.217 97.4112 203.217C98.0959 203.217 98.6504 203.772 98.6504 204.456C98.6504 205.141 98.0959 205.696 97.4112 205.696Z" fill="#1290C9"/>
<path d="M97.4112 223.043C96.7258 223.043 96.1713 222.488 96.1713 221.804C96.1713 221.12 96.7258 220.565 97.4112 220.565C98.0959 220.565 98.6504 221.12 98.6504 221.804C98.6504 222.488 98.0959 223.043 97.4112 223.043Z" fill="#1290C9"/>
<path d="M97.4112 240.391C96.7258 240.391 96.1713 239.836 96.1713 239.152C96.1713 238.467 96.7258 237.913 97.4112 237.913C98.0959 237.913 98.6504 238.467 98.6504 239.152C98.6504 239.836 98.0959 240.391 97.4112 240.391Z" fill="#1290C9"/>
<path d="M97.4112 256.5C96.7258 256.5 96.1713 255.945 96.1713 255.261C96.1713 254.576 96.7258 254.022 97.4112 254.022C98.0959 254.022 98.6504 254.576 98.6504 255.261C98.6504 255.945 98.0959 256.5 97.4112 256.5Z" fill="#1290C9"/>
<path d="M97.4112 273.848C96.7258 273.848 96.1713 273.293 96.1713 272.608C96.1713 271.924 96.7258 271.37 97.4112 271.37C98.0959 271.37 98.6504 271.924 98.6504 272.608C98.6504 273.293 98.0959 273.848 97.4112 273.848Z" fill="#1290C9"/>
<path d="M97.4112 256.5C96.7258 256.5 96.1713 255.945 96.1713 255.261C96.1713 254.576 96.7258 254.022 97.4112 254.022C98.0959 254.022 98.6504 254.576 98.6504 255.261C98.6504 255.945 98.0959 256.5 97.4112 256.5Z" fill="#1290C9"/>
<path d="M97.4112 273.848C96.7258 273.848 96.1713 273.293 96.1713 272.608C96.1713 271.924 96.7258 271.37 97.4112 271.37C98.0959 271.37 98.6504 271.924 98.6504 272.608C98.6504 273.293 98.0959 273.848 97.4112 273.848Z" fill="#1290C9"/>
<path d="M97.4112 273.848C96.7258 273.848 96.1713 273.293 96.1713 272.608C96.1713 271.924 96.7258 271.37 97.4112 271.37C98.0959 271.37 98.6504 271.924 98.6504 272.608C98.6504 273.293 98.0959 273.848 97.4112 273.848Z" fill="#1290C9"/>
<path d="M97.4112 291.196C96.7258 291.196 96.1713 290.641 96.1713 289.956C96.1713 289.272 96.7258 288.717 97.4112 288.717C98.0959 288.717 98.6504 289.272 98.6504 289.956C98.6504 290.641 98.0959 291.196 97.4112 291.196Z" fill="#1290C9"/>
<path d="M97.4112 307.304C96.7258 307.304 96.1713 306.749 96.1713 306.065C96.1713 305.381 96.7258 304.826 97.4112 304.826C98.0959 304.826 98.6504 305.381 98.6504 306.065C98.6504 306.749 98.0959 307.304 97.4112 307.304Z" fill="#1290C9"/>
<path d="M97.4112 324.652C96.7258 324.652 96.1713 324.097 96.1713 323.413C96.1713 322.728 96.7258 322.174 97.4112 322.174C98.0959 322.174 98.6504 322.728 98.6504 323.413C98.6504 324.097 98.0959 324.652 97.4112 324.652Z" fill="#1290C9"/>
<path d="M96.6319 341.682C95.692 341.682 94.9315 340.92 94.9315 339.982C94.9315 339.043 95.692 338.283 96.6319 338.283C97.5708 338.283 98.3313 339.043 98.3313 339.982C98.3313 340.92 97.5708 341.682 96.6319 341.682Z" fill="#1290C9"/>
<path d="M80.0574 2.47826C79.3721 2.47826 78.8175 1.92324 78.8175 1.23879C78.8175 0.554339 79.3721 2.29349e-08 80.0574 1.47675e-08C80.7421 6.60822e-09 81.2966 0.554339 81.2966 1.23879C81.2966 1.92324 80.7421 2.47826 80.0574 2.47826Z" fill="#1290C9"/>
<path d="M80.0574 19.8262C79.3721 19.8262 78.8175 19.2711 78.8175 18.5867C78.8175 17.9022 79.3721 17.3479 80.0574 17.3479C80.7421 17.3479 81.2966 17.9022 81.2966 18.5867C81.2966 19.2711 80.7421 19.8262 80.0574 19.8262Z" fill="#1290C9"/>
<path d="M80.0574 37.1738C79.3721 37.1738 78.8175 36.6188 78.8175 35.9343C78.8175 35.2499 79.3721 34.6956 80.0574 34.6956C80.7421 34.6956 81.2966 35.2499 81.2966 35.9343C81.2966 36.6188 80.7421 37.1738 80.0574 37.1738Z" fill="#1290C9"/>
<path d="M80.0574 53.2827C79.3721 53.2827 78.8175 52.7277 78.8175 52.0432C78.8175 51.3588 79.3721 50.8044 80.0574 50.8044C80.7421 50.8044 81.2966 51.3588 81.2966 52.0432C81.2966 52.7277 80.7421 53.2827 80.0574 53.2827Z" fill="#1290C9"/>
<path d="M80.0574 70.6304C79.3721 70.6304 78.8175 70.0753 78.8175 69.3909C78.8175 68.7064 79.3721 68.1521 80.0574 68.1521C80.7421 68.1521 81.2966 68.7064 81.2966 69.3909C81.2966 70.0753 80.7421 70.6304 80.0574 70.6304Z" fill="#1290C9"/>
<path d="M80.0574 70.6304C79.3721 70.6304 78.8175 70.0753 78.8175 69.3909C78.8175 68.7064 79.3721 68.1521 80.0574 68.1521C80.7421 68.1521 81.2966 68.7064 81.2966 69.3909C81.2966 70.0753 80.7421 70.6304 80.0574 70.6304Z" fill="#1290C9"/>
<path d="M80.0574 87.9783C79.3721 87.9783 78.8175 87.4232 78.8175 86.7388C78.8175 86.0543 79.3721 85.5 80.0574 85.5C80.7421 85.5 81.2966 86.0543 81.2966 86.7388C81.2966 87.4232 80.7421 87.9783 80.0574 87.9783Z" fill="#1290C9"/>
<path d="M80.0574 104.087C79.3721 104.087 78.8175 103.532 78.8175 102.847C78.8175 102.163 79.3721 101.609 80.0574 101.609C80.7421 101.609 81.2966 102.163 81.2966 102.847C81.2966 103.532 80.7421 104.087 80.0574 104.087Z" fill="#1290C9"/>
<path d="M80.0574 121.435C79.3721 121.435 78.8175 120.88 78.8175 120.195C78.8175 119.511 79.3721 118.957 80.0574 118.957C80.7421 118.957 81.2966 119.511 81.2966 120.195C81.2966 120.88 80.7421 121.435 80.0574 121.435Z" fill="#1290C9"/>
<path d="M80.0574 138.783C79.3721 138.783 78.8175 138.228 78.8175 137.543C78.8175 136.859 79.3721 136.304 80.0574 136.304C80.7421 136.304 81.2966 136.859 81.2966 137.543C81.2966 138.228 80.7421 138.783 80.0574 138.783Z" fill="#1290C9"/>
<path d="M80.0574 138.783C79.3721 138.783 78.8175 138.228 78.8175 137.543C78.8175 136.859 79.3721 136.304 80.0574 136.304C80.7421 136.304 81.2966 136.859 81.2966 137.543C81.2966 138.228 80.7421 138.783 80.0574 138.783Z" fill="#1290C9"/>
<path d="M80.0574 154.891C79.3721 154.891 78.8175 154.336 78.8175 153.652C78.8175 152.967 79.3721 152.413 80.0574 152.413C80.7421 152.413 81.2966 152.967 81.2966 153.652C81.2966 154.336 80.7421 154.891 80.0574 154.891Z" fill="#1290C9"/>
<path d="M80.0574 172.239C79.3721 172.239 78.8175 171.684 78.8175 171C78.8175 170.315 79.3721 169.761 80.0574 169.761C80.7421 169.761 81.2966 170.315 81.2966 171C81.2966 171.684 80.7421 172.239 80.0574 172.239Z" fill="#1290C9"/>
<path d="M80.0574 189.587C79.3721 189.587 78.8175 189.032 78.8175 188.347C78.8175 187.663 79.3721 187.109 80.0574 187.109C80.7421 187.109 81.2966 187.663 81.2966 188.347C81.2966 189.032 80.7421 189.587 80.0574 189.587Z" fill="#1290C9"/>
<path d="M80.0574 205.696C79.3721 205.696 78.8175 205.141 78.8175 204.456C78.8175 203.772 79.3721 203.217 80.0574 203.217C80.7421 203.217 81.2966 203.772 81.2966 204.456C81.2966 205.141 80.7421 205.696 80.0574 205.696Z" fill="#1290C9"/>
<path d="M80.0574 205.696C79.3721 205.696 78.8175 205.141 78.8175 204.456C78.8175 203.772 79.3721 203.217 80.0574 203.217C80.7421 203.217 81.2966 203.772 81.2966 204.456C81.2966 205.141 80.7421 205.696 80.0574 205.696Z" fill="#1290C9"/>
<path d="M80.0574 223.043C79.3721 223.043 78.8175 222.488 78.8175 221.804C78.8175 221.12 79.3721 220.565 80.0574 220.565C80.7421 220.565 81.2966 221.12 81.2966 221.804C81.2966 222.488 80.7421 223.043 80.0574 223.043Z" fill="#1290C9"/>
<path d="M80.0574 240.391C79.3721 240.391 78.8175 239.836 78.8175 239.152C78.8175 238.467 79.3721 237.913 80.0574 237.913C80.7421 237.913 81.2966 238.467 81.2966 239.152C81.2966 239.836 80.7421 240.391 80.0574 240.391Z" fill="#1290C9"/>
<path d="M80.0574 256.5C79.3721 256.5 78.8175 255.945 78.8175 255.261C78.8175 254.576 79.3721 254.022 80.0574 254.022C80.7421 254.022 81.2966 254.576 81.2966 255.261C81.2966 255.945 80.7421 256.5 80.0574 256.5Z" fill="#1290C9"/>
<path d="M80.0574 273.848C79.3721 273.848 78.8175 273.293 78.8175 272.608C78.8175 271.924 79.3721 271.37 80.0574 271.37C80.7421 271.37 81.2966 271.924 81.2966 272.608C81.2966 273.293 80.7421 273.848 80.0574 273.848Z" fill="#1290C9"/>
<path d="M80.0574 256.5C79.3721 256.5 78.8175 255.945 78.8175 255.261C78.8175 254.576 79.3721 254.022 80.0574 254.022C80.7421 254.022 81.2966 254.576 81.2966 255.261C81.2966 255.945 80.7421 256.5 80.0574 256.5Z" fill="#1290C9"/>
<path d="M80.0574 273.848C79.3721 273.848 78.8175 273.293 78.8175 272.608C78.8175 271.924 79.3721 271.37 80.0574 271.37C80.7421 271.37 81.2966 271.924 81.2966 272.608C81.2966 273.293 80.7421 273.848 80.0574 273.848Z" fill="#1290C9"/>
<path d="M80.0574 273.848C79.3721 273.848 78.8175 273.293 78.8175 272.608C78.8175 271.924 79.3721 271.37 80.0574 271.37C80.7421 271.37 81.2966 271.924 81.2966 272.608C81.2966 273.293 80.7421 273.848 80.0574 273.848Z" fill="#1290C9"/>
<path d="M80.0574 291.196C79.3721 291.196 78.8175 290.641 78.8175 289.956C78.8175 289.272 79.3721 288.717 80.0574 288.717C80.7421 288.717 81.2966 289.272 81.2966 289.956C81.2966 290.641 80.7421 291.196 80.0574 291.196Z" fill="#1290C9"/>
<path d="M80.0574 307.304C79.3721 307.304 78.8175 306.749 78.8175 306.065C78.8175 305.381 79.3721 304.826 80.0574 304.826C80.7421 304.826 81.2966 305.381 81.2966 306.065C81.2966 306.749 80.7421 307.304 80.0574 307.304Z" fill="#1290C9"/>
<path d="M80.0574 324.652C79.3721 324.652 78.8175 324.097 78.8175 323.413C78.8175 322.728 79.3721 322.174 80.0574 322.174C80.7421 322.174 81.2966 322.728 81.2966 323.413C81.2966 324.097 80.7421 324.652 80.0574 324.652Z" fill="#1290C9"/>
<path d="M79.682 341.682C78.9301 341.682 78.3217 340.92 78.3217 339.982C78.3217 339.043 78.9301 338.283 79.682 338.283C80.4331 338.283 81.0415 339.043 81.0415 339.982C81.0415 340.92 80.4331 341.682 79.682 341.682Z" fill="#1290C9"/>
<path d="M62.7039 2.47826C62.0186 2.47826 61.464 1.92324 61.464 1.23879C61.464 0.554339 62.0186 2.29349e-08 62.7039 1.47675e-08C63.3886 6.60822e-09 63.9431 0.554339 63.9431 1.23879C63.9431 1.92324 63.3886 2.47826 62.7039 2.47826Z" fill="#1290C9"/>
<path d="M62.7039 19.8262C62.0186 19.8262 61.464 19.2711 61.464 18.5867C61.464 17.9022 62.0186 17.3479 62.7039 17.3479C63.3886 17.3479 63.9431 17.9022 63.9431 18.5867C63.9431 19.2711 63.3886 19.8262 62.7039 19.8262Z" fill="#1290C9"/>
<path d="M62.7039 37.1738C62.0186 37.1738 61.464 36.6188 61.464 35.9343C61.464 35.2499 62.0186 34.6956 62.7039 34.6956C63.3886 34.6956 63.9431 35.2499 63.9431 35.9343C63.9431 36.6188 63.3886 37.1738 62.7039 37.1738Z" fill="#1290C9"/>
<path d="M62.7039 53.2827C62.0186 53.2827 61.464 52.7277 61.464 52.0432C61.464 51.3588 62.0186 50.8044 62.7039 50.8044C63.3886 50.8044 63.9431 51.3588 63.9431 52.0432C63.9431 52.7277 63.3886 53.2827 62.7039 53.2827Z" fill="#1290C9"/>
<path d="M62.7039 70.6304C62.0186 70.6304 61.464 70.0753 61.464 69.3909C61.464 68.7064 62.0186 68.1521 62.7039 68.1521C63.3886 68.1521 63.9431 68.7064 63.9431 69.3909C63.9431 70.0753 63.3886 70.6304 62.7039 70.6304Z" fill="#1290C9"/>
<path d="M62.7039 70.6304C62.0186 70.6304 61.464 70.0753 61.464 69.3909C61.464 68.7064 62.0186 68.1521 62.7039 68.1521C63.3886 68.1521 63.9431 68.7064 63.9431 69.3909C63.9431 70.0753 63.3886 70.6304 62.7039 70.6304Z" fill="#1290C9"/>
<path d="M62.7039 87.9783C62.0186 87.9783 61.464 87.4232 61.464 86.7388C61.464 86.0543 62.0186 85.5 62.7039 85.5C63.3886 85.5 63.9431 86.0543 63.9431 86.7388C63.9431 87.4232 63.3886 87.9783 62.7039 87.9783Z" fill="#1290C9"/>
<path d="M62.7039 104.087C62.0186 104.087 61.464 103.532 61.464 102.847C61.464 102.163 62.0186 101.609 62.7039 101.609C63.3886 101.609 63.9431 102.163 63.9431 102.847C63.9431 103.532 63.3886 104.087 62.7039 104.087Z" fill="#1290C9"/>
<path d="M62.7039 121.435C62.0186 121.435 61.464 120.88 61.464 120.195C61.464 119.511 62.0186 118.957 62.7039 118.957C63.3886 118.957 63.9431 119.511 63.9431 120.195C63.9431 120.88 63.3886 121.435 62.7039 121.435Z" fill="#1290C9"/>
<path d="M62.7039 138.783C62.0186 138.783 61.464 138.228 61.464 137.543C61.464 136.859 62.0186 136.304 62.7039 136.304C63.3886 136.304 63.9431 136.859 63.9431 137.543C63.9431 138.228 63.3886 138.783 62.7039 138.783Z" fill="#1290C9"/>
<path d="M62.7039 138.783C62.0186 138.783 61.464 138.228 61.464 137.543C61.464 136.859 62.0186 136.304 62.7039 136.304C63.3886 136.304 63.9431 136.859 63.9431 137.543C63.9431 138.228 63.3886 138.783 62.7039 138.783Z" fill="#1290C9"/>
<path d="M62.7039 154.891C62.0186 154.891 61.464 154.336 61.464 153.652C61.464 152.967 62.0186 152.413 62.7039 152.413C63.3886 152.413 63.9431 152.967 63.9431 153.652C63.9431 154.336 63.3886 154.891 62.7039 154.891Z" fill="#1290C9"/>
<path d="M62.7039 172.239C62.0186 172.239 61.464 171.684 61.464 171C61.464 170.315 62.0186 169.761 62.7039 169.761C63.3886 169.761 63.9431 170.315 63.9431 171C63.9431 171.684 63.3886 172.239 62.7039 172.239Z" fill="#1290C9"/>
<path d="M62.7039 189.587C62.0186 189.587 61.464 189.032 61.464 188.347C61.464 187.663 62.0186 187.109 62.7039 187.109C63.3886 187.109 63.9431 187.663 63.9431 188.347C63.9431 189.032 63.3886 189.587 62.7039 189.587Z" fill="#1290C9"/>
<path d="M62.7039 205.696C62.0186 205.696 61.464 205.141 61.464 204.456C61.464 203.772 62.0186 203.217 62.7039 203.217C63.3886 203.217 63.9431 203.772 63.9431 204.456C63.9431 205.141 63.3886 205.696 62.7039 205.696Z" fill="#1290C9"/>
<path d="M62.7039 205.696C62.0186 205.696 61.464 205.141 61.464 204.456C61.464 203.772 62.0186 203.217 62.7039 203.217C63.3886 203.217 63.9431 203.772 63.9431 204.456C63.9431 205.141 63.3886 205.696 62.7039 205.696Z" fill="#1290C9"/>
<path d="M62.7039 223.043C62.0186 223.043 61.464 222.488 61.464 221.804C61.464 221.12 62.0186 220.565 62.7039 220.565C63.3886 220.565 63.9431 221.12 63.9431 221.804C63.9431 222.488 63.3886 223.043 62.7039 223.043Z" fill="#1290C9"/>
<path d="M62.7039 240.391C62.0186 240.391 61.464 239.836 61.464 239.152C61.464 238.467 62.0186 237.913 62.7039 237.913C63.3886 237.913 63.9431 238.467 63.9431 239.152C63.9431 239.836 63.3886 240.391 62.7039 240.391Z" fill="#1290C9"/>
<path d="M62.7039 256.5C62.0186 256.5 61.464 255.945 61.464 255.261C61.464 254.576 62.0186 254.022 62.7039 254.022C63.3886 254.022 63.9431 254.576 63.9431 255.261C63.9431 255.945 63.3886 256.5 62.7039 256.5Z" fill="#1290C9"/>
<path d="M62.7039 273.848C62.0186 273.848 61.464 273.293 61.464 272.608C61.464 271.924 62.0186 271.37 62.7039 271.37C63.3886 271.37 63.9431 271.924 63.9431 272.608C63.9431 273.293 63.3886 273.848 62.7039 273.848Z" fill="#1290C9"/>
<path d="M62.7039 256.5C62.0186 256.5 61.464 255.945 61.464 255.261C61.464 254.576 62.0186 254.022 62.7039 254.022C63.3886 254.022 63.9431 254.576 63.9431 255.261C63.9431 255.945 63.3886 256.5 62.7039 256.5Z" fill="#1290C9"/>
<path d="M62.7039 273.848C62.0186 273.848 61.464 273.293 61.464 272.608C61.464 271.924 62.0186 271.37 62.7039 271.37C63.3886 271.37 63.9431 271.924 63.9431 272.608C63.9431 273.293 63.3886 273.848 62.7039 273.848Z" fill="#1290C9"/>
<path d="M62.7039 273.848C62.0186 273.848 61.464 273.293 61.464 272.608C61.464 271.924 62.0186 271.37 62.7039 271.37C63.3886 271.37 63.9431 271.924 63.9431 272.608C63.9431 273.293 63.3886 273.848 62.7039 273.848Z" fill="#1290C9"/>
<path d="M62.7039 291.196C62.0186 291.196 61.464 290.641 61.464 289.956C61.464 289.272 62.0186 288.717 62.7039 288.717C63.3886 288.717 63.9431 289.272 63.9431 289.956C63.9431 290.641 63.3886 291.196 62.7039 291.196Z" fill="#1290C9"/>
<path d="M62.7039 307.304C62.0186 307.304 61.464 306.749 61.464 306.065C61.464 305.381 62.0186 304.826 62.7039 304.826C63.3886 304.826 63.9431 305.381 63.9431 306.065C63.9431 306.749 63.3886 307.304 62.7039 307.304Z" fill="#1290C9"/>
<path d="M62.7039 324.652C62.0186 324.652 61.464 324.097 61.464 323.413C61.464 322.728 62.0186 322.174 62.7039 322.174C63.3886 322.174 63.9431 322.728 63.9431 323.413C63.9431 324.097 63.3886 324.652 62.7039 324.652Z" fill="#1290C9"/>
<path d="M63.568 341.682C62.8161 341.682 62.2077 340.92 62.2077 339.982C62.2077 339.043 62.8161 338.283 63.568 338.283C64.3191 338.283 64.9275 339.043 64.9275 339.982C64.9275 340.92 64.3191 341.682 63.568 341.682Z" fill="#1290C9"/>
<path d="M46.5899 2.47826C45.9045 2.47826 45.35 1.92324 45.35 1.23879C45.35 0.554339 45.9045 2.29349e-08 46.5899 1.47675e-08C47.2746 6.60822e-09 47.8291 0.554339 47.8291 1.23879C47.8291 1.92324 47.2746 2.47826 46.5899 2.47826Z" fill="#1290C9"/>
<path d="M46.5899 19.8262C45.9045 19.8262 45.35 19.2711 45.35 18.5867C45.35 17.9022 45.9045 17.3479 46.5899 17.3479C47.2746 17.3479 47.8291 17.9022 47.8291 18.5867C47.8291 19.2711 47.2746 19.8262 46.5899 19.8262Z" fill="#1290C9"/>
<path d="M46.5899 37.1738C45.9045 37.1738 45.35 36.6188 45.35 35.9343C45.35 35.2499 45.9045 34.6956 46.5899 34.6956C47.2746 34.6956 47.8291 35.2499 47.8291 35.9343C47.8291 36.6188 47.2746 37.1738 46.5899 37.1738Z" fill="#1290C9"/>
<path d="M46.5899 53.2827C45.9045 53.2827 45.35 52.7277 45.35 52.0432C45.35 51.3588 45.9045 50.8044 46.5899 50.8044C47.2746 50.8044 47.8291 51.3588 47.8291 52.0432C47.8291 52.7277 47.2746 53.2827 46.5899 53.2827Z" fill="#1290C9"/>
<path d="M46.5899 70.6304C45.9045 70.6304 45.35 70.0753 45.35 69.3909C45.35 68.7064 45.9045 68.1521 46.5899 68.1521C47.2746 68.1521 47.8291 68.7064 47.8291 69.3909C47.8291 70.0753 47.2746 70.6304 46.5899 70.6304Z" fill="#1290C9"/>
<path d="M46.5899 70.6304C45.9045 70.6304 45.35 70.0753 45.35 69.3909C45.35 68.7064 45.9045 68.1521 46.5899 68.1521C47.2746 68.1521 47.8291 68.7064 47.8291 69.3909C47.8291 70.0753 47.2746 70.6304 46.5899 70.6304Z" fill="#1290C9"/>
<path d="M46.5899 87.9783C45.9045 87.9783 45.35 87.4232 45.35 86.7388C45.35 86.0543 45.9045 85.5 46.5899 85.5C47.2746 85.5 47.8291 86.0543 47.8291 86.7388C47.8291 87.4232 47.2746 87.9783 46.5899 87.9783Z" fill="#1290C9"/>
<path d="M46.5899 104.087C45.9045 104.087 45.35 103.532 45.35 102.847C45.35 102.163 45.9045 101.609 46.5899 101.609C47.2746 101.609 47.8291 102.163 47.8291 102.847C47.8291 103.532 47.2746 104.087 46.5899 104.087Z" fill="#1290C9"/>
<path d="M46.5899 121.435C45.9045 121.435 45.35 120.88 45.35 120.195C45.35 119.511 45.9045 118.957 46.5899 118.957C47.2746 118.957 47.8291 119.511 47.8291 120.195C47.8291 120.88 47.2746 121.435 46.5899 121.435Z" fill="#1290C9"/>
<path d="M46.5899 138.783C45.9045 138.783 45.35 138.228 45.35 137.543C45.35 136.859 45.9045 136.304 46.5899 136.304C47.2746 136.304 47.8291 136.859 47.8291 137.543C47.8291 138.228 47.2746 138.783 46.5899 138.783Z" fill="#1290C9"/>
<path d="M46.5899 138.783C45.9045 138.783 45.35 138.228 45.35 137.543C45.35 136.859 45.9045 136.304 46.5899 136.304C47.2746 136.304 47.8291 136.859 47.8291 137.543C47.8291 138.228 47.2746 138.783 46.5899 138.783Z" fill="#1290C9"/>
<path d="M46.5899 154.891C45.9045 154.891 45.35 154.336 45.35 153.652C45.35 152.967 45.9045 152.413 46.5899 152.413C47.2746 152.413 47.8291 152.967 47.8291 153.652C47.8291 154.336 47.2746 154.891 46.5899 154.891Z" fill="#1290C9"/>
<path d="M46.5899 172.239C45.9045 172.239 45.35 171.684 45.35 171C45.35 170.315 45.9045 169.761 46.5899 169.761C47.2746 169.761 47.8291 170.315 47.8291 171C47.8291 171.684 47.2746 172.239 46.5899 172.239Z" fill="#1290C9"/>
<path d="M46.5899 189.587C45.9045 189.587 45.35 189.032 45.35 188.347C45.35 187.663 45.9045 187.109 46.5899 187.109C47.2746 187.109 47.8291 187.663 47.8291 188.347C47.8291 189.032 47.2746 189.587 46.5899 189.587Z" fill="#1290C9"/>
<path d="M46.5899 205.696C45.9045 205.696 45.35 205.141 45.35 204.456C45.35 203.772 45.9045 203.217 46.5899 203.217C47.2746 203.217 47.8291 203.772 47.8291 204.456C47.8291 205.141 47.2746 205.696 46.5899 205.696Z" fill="#1290C9"/>
<path d="M46.5899 205.696C45.9045 205.696 45.35 205.141 45.35 204.456C45.35 203.772 45.9045 203.217 46.5899 203.217C47.2746 203.217 47.8291 203.772 47.8291 204.456C47.8291 205.141 47.2746 205.696 46.5899 205.696Z" fill="#1290C9"/>
<path d="M46.5899 223.043C45.9045 223.043 45.35 222.488 45.35 221.804C45.35 221.12 45.9045 220.565 46.5899 220.565C47.2746 220.565 47.8291 221.12 47.8291 221.804C47.8291 222.488 47.2746 223.043 46.5899 223.043Z" fill="#1290C9"/>
<path d="M46.5899 240.391C45.9045 240.391 45.35 239.836 45.35 239.152C45.35 238.467 45.9045 237.913 46.5899 237.913C47.2746 237.913 47.8291 238.467 47.8291 239.152C47.8291 239.836 47.2746 240.391 46.5899 240.391Z" fill="#1290C9"/>
<path d="M46.5899 256.5C45.9045 256.5 45.35 255.945 45.35 255.261C45.35 254.576 45.9045 254.022 46.5899 254.022C47.2746 254.022 47.8291 254.576 47.8291 255.261C47.8291 255.945 47.2746 256.5 46.5899 256.5Z" fill="#1290C9"/>
<path d="M46.5899 273.848C45.9045 273.848 45.35 273.293 45.35 272.608C45.35 271.924 45.9045 271.37 46.5899 271.37C47.2746 271.37 47.8291 271.924 47.8291 272.608C47.8291 273.293 47.2746 273.848 46.5899 273.848Z" fill="#1290C9"/>
<path d="M46.5899 256.5C45.9045 256.5 45.35 255.945 45.35 255.261C45.35 254.576 45.9045 254.022 46.5899 254.022C47.2746 254.022 47.8291 254.576 47.8291 255.261C47.8291 255.945 47.2746 256.5 46.5899 256.5Z" fill="#1290C9"/>
<path d="M46.5899 273.848C45.9045 273.848 45.35 273.293 45.35 272.608C45.35 271.924 45.9045 271.37 46.5899 271.37C47.2746 271.37 47.8291 271.924 47.8291 272.608C47.8291 273.293 47.2746 273.848 46.5899 273.848Z" fill="#1290C9"/>
<path d="M46.5899 273.848C45.9045 273.848 45.35 273.293 45.35 272.608C45.35 271.924 45.9045 271.37 46.5899 271.37C47.2746 271.37 47.8291 271.924 47.8291 272.608C47.8291 273.293 47.2746 273.848 46.5899 273.848Z" fill="#1290C9"/>
<path d="M46.5899 291.196C45.9045 291.196 45.35 290.641 45.35 289.956C45.35 289.272 45.9045 288.717 46.5899 288.717C47.2746 288.717 47.8291 289.272 47.8291 289.956C47.8291 290.641 47.2746 291.196 46.5899 291.196Z" fill="#1290C9"/>
<path d="M46.5899 307.304C45.9045 307.304 45.35 306.749 45.35 306.065C45.35 305.381 45.9045 304.826 46.5899 304.826C47.2746 304.826 47.8291 305.381 47.8291 306.065C47.8291 306.749 47.2746 307.304 46.5899 307.304Z" fill="#1290C9"/>
<path d="M46.5899 324.652C45.9045 324.652 45.35 324.097 45.35 323.413C45.35 322.728 45.9045 322.174 46.5899 322.174C47.2746 322.174 47.8291 322.728 47.8291 323.413C47.8291 324.097 47.2746 324.652 46.5899 324.652Z" fill="#1290C9"/>
<path d="M46.2144 341.682C45.4625 341.682 44.8542 340.92 44.8542 339.982C44.8542 339.043 45.4625 338.283 46.2144 338.283C46.9656 338.283 47.574 339.043 47.574 339.982C47.574 340.92 46.9656 341.682 46.2144 341.682Z" fill="#1290C9"/>
<path d="M29.2361 2.47826C28.5508 2.47826 27.9963 1.92324 27.9963 1.23879C27.9963 0.554339 28.5508 2.29349e-08 29.2361 1.47675e-08C29.9208 6.60822e-09 30.4753 0.554339 30.4753 1.23879C30.4753 1.92324 29.9208 2.47826 29.2361 2.47826Z" fill="#1290C9"/>
<path d="M29.2361 19.8262C28.5508 19.8262 27.9963 19.2711 27.9963 18.5867C27.9963 17.9022 28.5508 17.3479 29.2361 17.3479C29.9208 17.3479 30.4753 17.9022 30.4753 18.5867C30.4753 19.2711 29.9208 19.8262 29.2361 19.8262Z" fill="#1290C9"/>
<path d="M29.2361 37.1738C28.5508 37.1738 27.9963 36.6188 27.9963 35.9343C27.9963 35.2499 28.5508 34.6956 29.2361 34.6956C29.9208 34.6956 30.4753 35.2499 30.4753 35.9343C30.4753 36.6188 29.9208 37.1738 29.2361 37.1738Z" fill="#1290C9"/>
<path d="M29.2361 53.2827C28.5508 53.2827 27.9963 52.7277 27.9963 52.0432C27.9963 51.3588 28.5508 50.8044 29.2361 50.8044C29.9208 50.8044 30.4753 51.3588 30.4753 52.0432C30.4753 52.7277 29.9208 53.2827 29.2361 53.2827Z" fill="#1290C9"/>
<path d="M29.2361 70.6304C28.5508 70.6304 27.9963 70.0753 27.9963 69.3909C27.9963 68.7064 28.5508 68.1521 29.2361 68.1521C29.9208 68.1521 30.4753 68.7064 30.4753 69.3909C30.4753 70.0753 29.9208 70.6304 29.2361 70.6304Z" fill="#1290C9"/>
<path d="M29.2361 70.6304C28.5508 70.6304 27.9963 70.0753 27.9963 69.3909C27.9963 68.7064 28.5508 68.1521 29.2361 68.1521C29.9208 68.1521 30.4753 68.7064 30.4753 69.3909C30.4753 70.0753 29.9208 70.6304 29.2361 70.6304Z" fill="#1290C9"/>
<path d="M29.2361 87.9783C28.5508 87.9783 27.9963 87.4232 27.9963 86.7388C27.9963 86.0543 28.5508 85.5 29.2361 85.5C29.9208 85.5 30.4753 86.0543 30.4753 86.7388C30.4753 87.4232 29.9208 87.9783 29.2361 87.9783Z" fill="#1290C9"/>
<path d="M29.2361 104.087C28.5508 104.087 27.9963 103.532 27.9963 102.847C27.9963 102.163 28.5508 101.609 29.2361 101.609C29.9208 101.609 30.4753 102.163 30.4753 102.847C30.4753 103.532 29.9208 104.087 29.2361 104.087Z" fill="#1290C9"/>
<path d="M29.2361 121.435C28.5508 121.435 27.9963 120.88 27.9963 120.195C27.9963 119.511 28.5508 118.957 29.2361 118.957C29.9208 118.957 30.4753 119.511 30.4753 120.195C30.4753 120.88 29.9208 121.435 29.2361 121.435Z" fill="#1290C9"/>
<path d="M29.2361 138.783C28.5508 138.783 27.9963 138.228 27.9963 137.543C27.9963 136.859 28.5508 136.304 29.2361 136.304C29.9208 136.304 30.4753 136.859 30.4753 137.543C30.4753 138.228 29.9208 138.783 29.2361 138.783Z" fill="#1290C9"/>
<path d="M29.2361 138.783C28.5508 138.783 27.9963 138.228 27.9963 137.543C27.9963 136.859 28.5508 136.304 29.2361 136.304C29.9208 136.304 30.4753 136.859 30.4753 137.543C30.4753 138.228 29.9208 138.783 29.2361 138.783Z" fill="#1290C9"/>
<path d="M29.2361 154.891C28.5508 154.891 27.9963 154.336 27.9963 153.652C27.9963 152.967 28.5508 152.413 29.2361 152.413C29.9208 152.413 30.4753 152.967 30.4753 153.652C30.4753 154.336 29.9208 154.891 29.2361 154.891Z" fill="#1290C9"/>
<path d="M29.2361 172.239C28.5508 172.239 27.9963 171.684 27.9963 171C27.9963 170.315 28.5508 169.761 29.2361 169.761C29.9208 169.761 30.4753 170.315 30.4753 171C30.4753 171.684 29.9208 172.239 29.2361 172.239Z" fill="#1290C9"/>
<path d="M29.2361 189.587C28.5508 189.587 27.9963 189.032 27.9963 188.347C27.9963 187.663 28.5508 187.109 29.2361 187.109C29.9208 187.109 30.4753 187.663 30.4753 188.347C30.4753 189.032 29.9208 189.587 29.2361 189.587Z" fill="#1290C9"/>
<path d="M29.2361 205.696C28.5508 205.696 27.9963 205.141 27.9963 204.456C27.9963 203.772 28.5508 203.217 29.2361 203.217C29.9208 203.217 30.4753 203.772 30.4753 204.456C30.4753 205.141 29.9208 205.696 29.2361 205.696Z" fill="#1290C9"/>
<path d="M29.2361 205.696C28.5508 205.696 27.9963 205.141 27.9963 204.456C27.9963 203.772 28.5508 203.217 29.2361 203.217C29.9208 203.217 30.4753 203.772 30.4753 204.456C30.4753 205.141 29.9208 205.696 29.2361 205.696Z" fill="#1290C9"/>
<path d="M29.2361 223.043C28.5508 223.043 27.9963 222.488 27.9963 221.804C27.9963 221.12 28.5508 220.565 29.2361 220.565C29.9208 220.565 30.4753 221.12 30.4753 221.804C30.4753 222.488 29.9208 223.043 29.2361 223.043Z" fill="#1290C9"/>
<path d="M29.2361 240.391C28.5508 240.391 27.9963 239.836 27.9963 239.152C27.9963 238.467 28.5508 237.913 29.2361 237.913C29.9208 237.913 30.4753 238.467 30.4753 239.152C30.4753 239.836 29.9208 240.391 29.2361 240.391Z" fill="#1290C9"/>
<path d="M29.2361 256.5C28.5508 256.5 27.9963 255.945 27.9963 255.261C27.9963 254.576 28.5508 254.022 29.2361 254.022C29.9208 254.022 30.4753 254.576 30.4753 255.261C30.4753 255.945 29.9208 256.5 29.2361 256.5Z" fill="#1290C9"/>
<path d="M29.2361 273.848C28.5508 273.848 27.9963 273.293 27.9963 272.608C27.9963 271.924 28.5508 271.37 29.2361 271.37C29.9208 271.37 30.4753 271.924 30.4753 272.608C30.4753 273.293 29.9208 273.848 29.2361 273.848Z" fill="#1290C9"/>
<path d="M29.2361 256.5C28.5508 256.5 27.9963 255.945 27.9963 255.261C27.9963 254.576 28.5508 254.022 29.2361 254.022C29.9208 254.022 30.4753 254.576 30.4753 255.261C30.4753 255.945 29.9208 256.5 29.2361 256.5Z" fill="#1290C9"/>
<path d="M29.2361 273.848C28.5508 273.848 27.9963 273.293 27.9963 272.608C27.9963 271.924 28.5508 271.37 29.2361 271.37C29.9208 271.37 30.4753 271.924 30.4753 272.608C30.4753 273.293 29.9208 273.848 29.2361 273.848Z" fill="#1290C9"/>
<path d="M29.2361 273.848C28.5508 273.848 27.9963 273.293 27.9963 272.608C27.9963 271.924 28.5508 271.37 29.2361 271.37C29.9208 271.37 30.4753 271.924 30.4753 272.608C30.4753 273.293 29.9208 273.848 29.2361 273.848Z" fill="#1290C9"/>
<path d="M29.2361 291.196C28.5508 291.196 27.9963 290.641 27.9963 289.956C27.9963 289.272 28.5508 288.717 29.2361 288.717C29.9208 288.717 30.4753 289.272 30.4753 289.956C30.4753 290.641 29.9208 291.196 29.2361 291.196Z" fill="#1290C9"/>
<path d="M29.2361 307.304C28.5508 307.304 27.9963 306.749 27.9963 306.065C27.9963 305.381 28.5508 304.826 29.2361 304.826C29.9208 304.826 30.4753 305.381 30.4753 306.065C30.4753 306.749 29.9208 307.304 29.2361 307.304Z" fill="#1290C9"/>
<path d="M29.2361 324.652C28.5508 324.652 27.9963 324.097 27.9963 323.413C27.9963 322.728 28.5508 322.174 29.2361 322.174C29.9208 322.174 30.4753 322.728 30.4753 323.413C30.4753 324.097 29.9208 324.652 29.2361 324.652Z" fill="#1290C9"/>
<path d="M28.8607 341.682C28.1088 341.682 27.5004 340.92 27.5004 339.982C27.5004 339.043 28.1088 338.283 28.8607 338.283C29.6118 338.283 30.2202 339.043 30.2202 339.982C30.2202 340.92 29.6118 341.682 28.8607 341.682Z" fill="#1290C9"/>
<path d="M11.8826 2.47826C11.1973 2.47826 10.6427 1.92324 10.6427 1.23879C10.6427 0.554339 11.1973 2.29349e-08 11.8826 1.47675e-08C12.5673 6.60822e-09 13.1218 0.554339 13.1218 1.23879C13.1218 1.92324 12.5673 2.47826 11.8826 2.47826Z" fill="#1290C9"/>
<path d="M11.8826 19.8262C11.1973 19.8262 10.6427 19.2711 10.6427 18.5867C10.6427 17.9022 11.1973 17.3479 11.8826 17.3479C12.5673 17.3479 13.1218 17.9022 13.1218 18.5867C13.1218 19.2711 12.5673 19.8262 11.8826 19.8262Z" fill="#1290C9"/>
<path d="M11.8826 37.1738C11.1973 37.1738 10.6427 36.6188 10.6427 35.9343C10.6427 35.2499 11.1973 34.6956 11.8826 34.6956C12.5673 34.6956 13.1218 35.2499 13.1218 35.9343C13.1218 36.6188 12.5673 37.1738 11.8826 37.1738Z" fill="#1290C9"/>
<path d="M11.8826 53.2827C11.1973 53.2827 10.6427 52.7277 10.6427 52.0432C10.6427 51.3588 11.1973 50.8044 11.8826 50.8044C12.5673 50.8044 13.1218 51.3588 13.1218 52.0432C13.1218 52.7277 12.5673 53.2827 11.8826 53.2827Z" fill="#1290C9"/>
<path d="M11.8826 70.6304C11.1973 70.6304 10.6427 70.0753 10.6427 69.3909C10.6427 68.7064 11.1973 68.1521 11.8826 68.1521C12.5673 68.1521 13.1218 68.7064 13.1218 69.3909C13.1218 70.0753 12.5673 70.6304 11.8826 70.6304Z" fill="#1290C9"/>
<path d="M11.8826 70.6304C11.1973 70.6304 10.6427 70.0753 10.6427 69.3909C10.6427 68.7064 11.1973 68.1521 11.8826 68.1521C12.5673 68.1521 13.1218 68.7064 13.1218 69.3909C13.1218 70.0753 12.5673 70.6304 11.8826 70.6304Z" fill="#1290C9"/>
<path d="M11.8826 87.9783C11.1973 87.9783 10.6427 87.4232 10.6427 86.7388C10.6427 86.0543 11.1973 85.5 11.8826 85.5C12.5673 85.5 13.1218 86.0543 13.1218 86.7388C13.1218 87.4232 12.5673 87.9783 11.8826 87.9783Z" fill="#1290C9"/>
<path d="M11.8826 104.087C11.1973 104.087 10.6427 103.532 10.6427 102.847C10.6427 102.163 11.1973 101.609 11.8826 101.609C12.5673 101.609 13.1218 102.163 13.1218 102.847C13.1218 103.532 12.5673 104.087 11.8826 104.087Z" fill="#1290C9"/>
<path d="M11.8826 121.435C11.1973 121.435 10.6427 120.88 10.6427 120.195C10.6427 119.511 11.1973 118.957 11.8826 118.957C12.5673 118.957 13.1218 119.511 13.1218 120.195C13.1218 120.88 12.5673 121.435 11.8826 121.435Z" fill="#1290C9"/>
<path d="M11.8826 138.783C11.1973 138.783 10.6427 138.228 10.6427 137.543C10.6427 136.859 11.1973 136.304 11.8826 136.304C12.5673 136.304 13.1218 136.859 13.1218 137.543C13.1218 138.228 12.5673 138.783 11.8826 138.783Z" fill="#1290C9"/>
<path d="M11.8826 138.783C11.1973 138.783 10.6427 138.228 10.6427 137.543C10.6427 136.859 11.1973 136.304 11.8826 136.304C12.5673 136.304 13.1218 136.859 13.1218 137.543C13.1218 138.228 12.5673 138.783 11.8826 138.783Z" fill="#1290C9"/>
<path d="M11.8826 154.891C11.1973 154.891 10.6427 154.336 10.6427 153.652C10.6427 152.967 11.1973 152.413 11.8826 152.413C12.5673 152.413 13.1218 152.967 13.1218 153.652C13.1218 154.336 12.5673 154.891 11.8826 154.891Z" fill="#1290C9"/>
<path d="M11.8826 172.239C11.1973 172.239 10.6427 171.684 10.6427 171C10.6427 170.315 11.1973 169.761 11.8826 169.761C12.5673 169.761 13.1218 170.315 13.1218 171C13.1218 171.684 12.5673 172.239 11.8826 172.239Z" fill="#1290C9"/>
<path d="M11.8826 189.587C11.1973 189.587 10.6427 189.032 10.6427 188.347C10.6427 187.663 11.1973 187.109 11.8826 187.109C12.5673 187.109 13.1218 187.663 13.1218 188.347C13.1218 189.032 12.5673 189.587 11.8826 189.587Z" fill="#1290C9"/>
<path d="M11.8826 205.696C11.1973 205.696 10.6427 205.141 10.6427 204.456C10.6427 203.772 11.1973 203.217 11.8826 203.217C12.5673 203.217 13.1218 203.772 13.1218 204.456C13.1218 205.141 12.5673 205.696 11.8826 205.696Z" fill="#1290C9"/>
<path d="M11.8826 205.696C11.1973 205.696 10.6427 205.141 10.6427 204.456C10.6427 203.772 11.1973 203.217 11.8826 203.217C12.5673 203.217 13.1218 203.772 13.1218 204.456C13.1218 205.141 12.5673 205.696 11.8826 205.696Z" fill="#1290C9"/>
<path d="M11.8826 223.043C11.1973 223.043 10.6427 222.488 10.6427 221.804C10.6427 221.12 11.1973 220.565 11.8826 220.565C12.5673 220.565 13.1218 221.12 13.1218 221.804C13.1218 222.488 12.5673 223.043 11.8826 223.043Z" fill="#1290C9"/>
<path d="M11.8826 240.391C11.1973 240.391 10.6427 239.836 10.6427 239.152C10.6427 238.467 11.1973 237.913 11.8826 237.913C12.5673 237.913 13.1218 238.467 13.1218 239.152C13.1218 239.836 12.5673 240.391 11.8826 240.391Z" fill="#1290C9"/>
<path d="M11.8826 256.5C11.1973 256.5 10.6427 255.945 10.6427 255.261C10.6427 254.576 11.1973 254.022 11.8826 254.022C12.5673 254.022 13.1218 254.576 13.1218 255.261C13.1218 255.945 12.5673 256.5 11.8826 256.5Z" fill="#1290C9"/>
<path d="M11.8826 273.848C11.1973 273.848 10.6427 273.293 10.6427 272.608C10.6427 271.924 11.1973 271.37 11.8826 271.37C12.5673 271.37 13.1218 271.924 13.1218 272.608C13.1218 273.293 12.5673 273.848 11.8826 273.848Z" fill="#1290C9"/>
<path d="M11.8826 256.5C11.1973 256.5 10.6427 255.945 10.6427 255.261C10.6427 254.576 11.1973 254.022 11.8826 254.022C12.5673 254.022 13.1218 254.576 13.1218 255.261C13.1218 255.945 12.5673 256.5 11.8826 256.5Z" fill="#1290C9"/>
<path d="M11.8826 273.848C11.1973 273.848 10.6427 273.293 10.6427 272.608C10.6427 271.924 11.1973 271.37 11.8826 271.37C12.5673 271.37 13.1218 271.924 13.1218 272.608C13.1218 273.293 12.5673 273.848 11.8826 273.848Z" fill="#1290C9"/>
<path d="M11.8826 273.848C11.1973 273.848 10.6427 273.293 10.6427 272.608C10.6427 271.924 11.1973 271.37 11.8826 271.37C12.5673 271.37 13.1218 271.924 13.1218 272.608C13.1218 273.293 12.5673 273.848 11.8826 273.848Z" fill="#1290C9"/>
<path d="M11.8826 291.196C11.1973 291.196 10.6427 290.641 10.6427 289.956C10.6427 289.272 11.1973 288.717 11.8826 288.717C12.5673 288.717 13.1218 289.272 13.1218 289.956C13.1218 290.641 12.5673 291.196 11.8826 291.196Z" fill="#1290C9"/>
<path d="M11.8826 307.304C11.1973 307.304 10.6427 306.749 10.6427 306.065C10.6427 305.381 11.1973 304.826 11.8826 304.826C12.5673 304.826 13.1218 305.381 13.1218 306.065C13.1218 306.749 12.5673 307.304 11.8826 307.304Z" fill="#1290C9"/>
<path d="M11.8826 324.652C11.1973 324.652 10.6427 324.097 10.6427 323.413C10.6427 322.728 11.1973 322.174 11.8826 322.174C12.5673 322.174 13.1218 322.728 13.1218 323.413C13.1218 324.097 12.5673 324.652 11.8826 324.652Z" fill="#1290C9"/>
<path d="M12.3431 341.682C11.4032 341.682 10.6427 340.92 10.6427 339.982C10.6427 339.043 11.4032 338.283 12.3431 338.283C13.282 338.283 14.0425 339.043 14.0425 339.982C14.0425 340.92 13.282 341.682 12.3431 341.682Z" fill="#1290C9"/>
</g>
<defs>
<clipPath id="clip0_36_742">
<rect width="326" height="342" fill="white" transform="translate(-91)"/>
</clipPath>
</defs>
</svg>
